<?xml version="1.0" encoding="UTF-8" standalone="no"?>
<!-- Created with Inkscape (http://www.inkscape.org/) -->

<svg
   xmlns:dc="http://purl.org/dc/elements/1.1/"
   xmlns:cc="http://creativecommons.org/ns#"
   xmlns:rdf="http://www.w3.org/1999/02/22-rdf-syntax-ns#"
   xmlns:svg="http://www.w3.org/2000/svg"
   xmlns="http://www.w3.org/2000/svg"
   xmlns:sodipodi="http://sodipodi.sourceforge.net/DTD/sodipodi-0.dtd"
   xmlns:inkscape="http://www.inkscape.org/namespaces/inkscape"
   width="297mm"
   height="210mm"
   viewBox="0 0 297 210"
   id="svg5780"
   version="1.1"
   inkscape:version="0.91 r13725"
   sodipodi:docname="uvod.svg">
  <defs
     id="defs5782" />
  <sodipodi:namedview
     inkscape:document-units="mm"
     pagecolor="#ffffff"
     bordercolor="#666666"
     borderopacity="1.0"
     inkscape:pageopacity="0.0"
     inkscape:pageshadow="2"
     inkscape:zoom="0.61399264"
     inkscape:cx="520.07106"
     inkscape:cy="301.77796"
     inkscape:current-layer="layer1"
     id="namedview5784"
     showgrid="false"
     inkscape:window-width="1615"
     inkscape:window-height="1027"
     inkscape:window-x="57"
     inkscape:window-y="-8"
     inkscape:window-maximized="1" />
  <metadata
     id="metadata5786">
    <rdf:RDF>
      <cc:Work
         rdf:about="">
        <dc:format>image/svg+xml</dc:format>
        <dc:type
           rdf:resource="http://purl.org/dc/dcmitype/StillImage" />
        <dc:title></dc:title>
      </cc:Work>
    </rdf:RDF>
  </metadata>
  <g
     inkscape:label="Layer 1"
     inkscape:groupmode="layer"
     id="layer1">
    <path
       style="fill:#ff7f2a;fill-opacity:1;stroke:#000000;stroke-width:0.19924888;stroke-miterlimit:4;stroke-dasharray:none;stroke-opacity:1"
       id="path6339"
       d="m 41.218826,31.432031 c 0.08683,2.525703 0.46618,5.026164 0.737328,7.535754 0.438531,3.358055 0.890646,6.713731 1.186815,10.088025 0.101149,1.535483 0.294471,3.06296 0.469333,4.591315 0,0 -5.93585,3.101834 -5.93585,3.101834 l 0,0 c -0.14309,-1.550591 -0.329588,-3.098707 -0.377049,-4.656449 -0.246137,-3.376281 -0.670326,-6.727568 -1.16759,-10.075404 -0.283151,-2.477925 -0.697919,-4.937294 -0.93864,-7.419859 0,0 6.025653,-3.165216 6.025653,-3.165216 z"
       inkscape:connector-curvature="0" />
    <path
       style="fill:#ff7f2a;fill-opacity:1;stroke:#000000;stroke-width:0.19924888;stroke-miterlimit:4;stroke-dasharray:none;stroke-opacity:1"
       id="path6341"
       d="m 34.70917,34.416249 c 1.892599,-1.019641 3.822878,-1.958659 5.791355,-2.824302 2.650208,-1.116102 5.399047,-1.933781 8.219502,-2.475766 1.602695,-0.273903 3.225659,-0.371938 4.848939,-0.39628 0.993276,-0.08459 1.872113,0.10046 2.723648,0.605948 1.048117,0.679066 1.606525,1.825298 2.235533,2.860864 0.567854,0.87794 0.834867,1.860477 0.971031,2.884337 0.04167,0.798392 -0.155818,1.686294 -0.906233,2.128898 -2.109478,1.244191 -4.258121,2.420747 -6.387182,3.631119 -1.80946,0.693485 -3.732417,1.014154 -5.645918,1.268208 -2.020547,0.297013 -4.038247,0.60794 -6.061512,0.888187 -1.165344,0.164612 -2.338449,0.254045 -3.513687,0.302587 0,0 5.469292,-4.01163 5.469292,-4.01163 l 0,0 c 1.142012,-0.05643 2.281973,-0.148878 3.414858,-0.307479 2.01547,-0.281988 4.029261,-0.575849 6.04203,-0.876187 1.906657,-0.289986 3.827856,-0.655833 5.586315,-1.479835 -1.739366,1.024693 -3.484259,2.040063 -5.218099,3.074075 -0.147859,0.08818 0.314186,-0.143541 0.459344,-0.236099 0.294717,-0.187923 0.592978,-0.472618 0.686198,-0.819396 0.03517,-0.130826 0.03228,-0.269011 0.04842,-0.403518 -0.0922,-0.93776 -0.294964,-1.837845 -0.808437,-2.645743 -0.55635,-0.943731 -1.056061,-1.991967 -2.065745,-2.526832 -0.802502,-0.355295 -1.637575,-0.389511 -2.508151,-0.343145 -1.568188,0.02952 -3.136968,0.128863 -4.681212,0.42015 -2.778669,0.559731 -5.485567,1.415446 -8.081092,2.560675 -2.015289,0.929652 -3.992775,1.928614 -5.945942,2.982053 0,0 5.326741,-4.260889 5.326741,-4.260889 z"
       inkscape:connector-curvature="0" />
    <path
       style="fill:#ff7f2a;fill-opacity:1;stroke:#000000;stroke-width:0.19924888;stroke-miterlimit:4;stroke-dasharray:none;stroke-opacity:1"
       id="path6343"
       d="m 62.879286,43.998797 c 1.670112,0.342482 3.315614,0.798996 4.985853,1.150803 2.340573,0.610949 4.750376,0.849021 7.157641,0.997077 2.102558,0.101535 4.208286,0.101829 6.312772,0.100906 1.495837,-0.146733 3.155194,0.307013 4.572054,-0.300756 -1.843326,1.030938 -3.687795,2.059833 -5.529975,3.092814 -0.05422,0.03041 0.315132,-0.154683 0.323195,-0.187474 0.03291,-0.133847 -0.7131,-0.675637 -1.041014,-0.91845 -2.503505,-1.87091 -5.245018,-3.35354 -8.091107,-4.625264 -2.631519,-1.200559 -5.440957,-1.85519 -8.298708,-2.205482 -1.367499,-0.137425 -2.73087,-0.236214 -4.079488,0.05174 -2.074464,1.145438 -4.830905,2.561844 4.76912,-2.723927 0.118822,-0.06543 -0.200434,0.183557 -0.290274,0.285185 -0.223415,0.25273 -0.31223,0.428004 -0.490606,0.718769 -0.494936,0.77783 -0.684423,1.659114 -0.790445,2.560394 -0.08087,1.044547 0.133149,2.08797 0.23373,3.126664 0.105185,1.193757 0.131011,2.393007 0.151788,3.590702 0.01383,0.974948 0.01341,1.950023 0.01332,2.925047 -0.07273,0.937968 0.01592,1.769945 0.396968,2.629069 0.823747,1.209181 2.196346,1.894947 3.439434,2.596128 1.623607,0.820158 3.279684,1.493896 5.051323,1.908579 1.412497,0.301707 2.825852,0.561159 4.265831,0.68685 1.36168,0.09731 2.727551,0.0913 4.091819,0.0954 1.20199,-0.0048 2.403949,-0.0094 3.605945,-0.01132 1.041346,-0.0031 2.082695,-0.0061 3.124044,-0.0076 0.434688,8.47e-4 0.869228,5.65e-4 1.303836,-0.0075 0,0 -5.520964,4.011236 -5.520964,4.011236 l 0,0 c -0.427724,-0.0082 -0.85539,-0.0081 -1.283196,-0.0073 -1.035809,-0.0011 -2.071619,-0.0033 -3.107428,-0.0033 -1.197263,0.0017 -2.394517,0.0048 -3.591774,-0.0037 -1.377197,-0.0072 -2.757695,-0.01662 -4.129637,-0.148506 -1.449321,-0.165585 -2.880224,-0.446165 -4.298315,-0.787513 -1.788868,-0.496403 -3.490431,-1.201654 -5.134319,-2.066222 -1.374704,-0.77779 -2.849011,-1.553969 -3.732699,-2.914193 -0.456297,-0.97495 -0.640647,-1.802945 -0.541963,-2.882558 0.002,-0.975058 0.0062,-1.950113 0.0051,-2.925174 -0.0056,-1.18283 -0.01747,-2.366764 -0.115195,-3.54632 -0.09866,-1.077428 -0.335664,-2.149438 -0.318296,-3.2295 0.07728,-0.973184 0.210301,-1.947689 0.665032,-2.827248 0.167868,-0.298614 0.391631,-0.990891 0.690041,-1.181905 2.014754,-1.289659 4.359256,-3.410105 6.972588,-3.94469 1.367892,-0.156972 2.750578,0.0049 4.109602,0.180419 2.853611,0.472048 5.652058,1.221446 8.286614,2.438899 2.896292,1.318672 5.67186,2.863249 8.314193,4.640707 0.44798,0.317653 0.882216,0.565238 1.224594,1.000295 1.898715,2.412661 -5.775413,5.225694 -6.040267,4.761783 -1.518415,0.230429 -3.068862,0.01964 -4.59773,0.08711 -2.106213,-0.007 -4.214238,-0.0091 -6.316622,-0.154031 -2.42754,-0.187901 -4.849498,-0.484036 -7.217666,-1.06805 -1.695942,-0.359489 -3.378906,-0.804164 -5.098272,-1.036811 0,0 5.589572,-3.921681 5.589572,-3.921681 z"
       inkscape:connector-curvature="0" />
    <path
       style="fill:#ff7f2a;fill-opacity:1;stroke:#000000;stroke-width:0.19924888;stroke-miterlimit:4;stroke-dasharray:none;stroke-opacity:1"
       id="path6345"
       d="m 100.0189,33.767719 c 0.0823,2.225035 0.21723,4.447272 0.29838,6.672679 0.0713,2.555596 0.0847,5.112464 0.0887,7.66892 -0.0683,2.5179 0.2357,5.018321 0.53105,7.512874 0.2619,0.806278 0.0442,3.328487 0.62432,3.901076 -0.59838,-2.584424 0.0797,-0.356923 -5.688418,2.704217 -0.160725,0.0853 0.243713,-0.270773 0.354291,-0.415279 0.648129,-0.847002 1.11252,-1.462647 1.88387,-2.232612 3.368787,-2.624108 7.190937,-4.813359 11.261477,-6.154025 1.43944,-0.474091 2.44881,-0.692968 3.91553,-1.053936 3.10693,-0.788636 6.28916,-1.220594 9.48129,-1.462007 0.81456,-0.03894 2.56584,-0.539634 2.42337,0.853375 -3.30621,-3.375733 -4.02088,3.249679 -6.4582,3.780378 -0.25212,0.0549 -0.51262,0.06182 -0.76663,0.107134 -1.14348,0.203993 -2.27081,0.476928 -3.41649,0.67557 -3.08153,0.555455 -6.12973,1.276192 -9.18113,1.974429 -2.52188,0.614491 -5.08036,1.055514 -7.624486,1.563514 -0.69828,0.15297 -1.410947,0.220608 -2.112335,0.355346 -0.111342,0.02139 -0.427817,0.135907 -0.331515,0.07607 6.225886,-3.868053 3.860428,-4.390912 7.026626,-3.336648 3.72187,1.011877 7.50824,1.765988 11.26821,2.62102 3.01712,0.606374 6.02146,1.274304 9.03909,1.877656 1.08723,0.190706 0.57448,0.07611 1.54105,0.330939 0,0 -5.56813,3.830814 -5.56813,3.830814 l 0,0 c -0.90874,-0.238001 -0.42031,-0.119727 -1.46727,-0.3466 -2.95181,-0.692875 -5.90686,-1.368315 -8.87219,-2.001791 -3.81851,-0.873258 -7.66006,-1.64248 -11.468831,-2.556727 -0.359246,-0.115635 -1.325962,-0.06263 -1.077739,-0.346908 3.948362,-4.52188 3.703523,-3.897328 7.37185,-4.549826 2.50886,-0.482704 5.03839,-0.863348 7.51499,-1.503807 3.07089,-0.681267 6.13024,-1.418039 9.2265,-1.978662 1.16301,-0.234061 2.34743,-0.45065 3.4908,-0.772615 2.27847,-0.641604 6.21688,-3.851856 -4.44378,2.90004 0.23913,0.06342 0.2623,0.03352 0.41474,0.35466 0.005,0.01024 -0.18899,-0.01202 -0.43275,-0.01036 -0.4348,0.0029 -1.04688,0.03838 -1.45471,0.05797 -3.1287,0.231417 -6.24227,0.657056 -9.28212,1.454633 -1.93679,0.502694 -3.82027,1.037957 -5.65898,1.840899 -0.50737,0.221558 -1.96386,1.016426 -1.49805,0.717222 10.83167,-6.957409 4.21276,-2.454009 3.30656,-1.832367 -0.62043,0.555196 -0.93548,0.775504 -1.42095,1.422826 -0.1526,0.203474 -0.26998,0.431126 -0.4034,0.647664 -0.0974,0.158098 -0.13411,0.373879 -0.28906,0.47623 -6.025895,3.980428 -4.216112,5.175738 -6.500918,3.398215 -0.732076,-1.253908 -0.317201,-2.909855 -0.623313,-4.279894 -0.265853,-2.521216 -0.620257,-5.042008 -0.550469,-7.584635 -0.0069,-2.549641 -0.0056,-5.099699 -0.0817,-7.648487 -0.07129,-2.210153 -0.161036,-4.425036 -0.454316,-6.618842 0,0 6.065156,-3.090351 6.065156,-3.090351 z"
       inkscape:connector-curvature="0" />
    <path
       style="fill:#ff7f2a;fill-opacity:1;stroke:#000000;stroke-width:0.19924888;stroke-miterlimit:4;stroke-dasharray:none;stroke-opacity:1"
       id="path6347"
       d="m 143.72406,46.932836 c 0.14782,1.355897 0.30103,2.708317 0.56843,4.046629 0.37957,1.853308 0.55373,3.738188 0.65705,5.624367 0.0676,1.618601 0.0941,3.238759 0.0981,4.858684 0.005,1.154529 0.0104,2.309055 0.0133,3.463595 -0.0742,0.06976 0.0496,2.024896 0.2203,1.488155 -0.30649,-2.476531 0.0833,-0.09677 -5.67601,2.975246 -0.14377,0.07669 0.18562,-0.268857 0.26107,-0.413278 0.40508,-0.775321 0.69645,-1.626165 1.01853,-2.436981 0.62318,-1.309601 1.20183,-2.674707 2.01531,-3.883572 0.50974,-0.757504 0.77186,-0.982142 1.38822,-1.633135 2.9983,-2.580821 6.52045,-4.859325 10.45817,-5.525367 1.09025,-0.151327 2.1927,-0.136434 3.29043,-0.12591 1.14217,0.125027 1.90325,0.803407 2.64524,1.627372 1.16306,1.531013 2.24512,3.121324 3.23522,4.768929 0.75616,1.100472 1.34686,2.271113 1.65774,3.569755 0.0958,0.442096 0.12066,0.893843 0.17346,1.341789 0.0427,0.362244 0.0857,0.318632 -0.21964,-0.328425 0,0 -5.47851,4.166227 -5.47851,4.166227 l 0,0 c -0.12156,-0.165343 -0.27046,-0.313715 -0.36467,-0.496031 -0.11445,-0.221477 0.0936,-1.227353 -0.0962,-1.470358 -0.2414,-1.245291 -0.78422,-2.362313 -1.48843,-3.4163 -0.94273,-1.61544 -1.96636,-3.1946 -3.18458,-4.618169 -0.69389,-0.670142 -1.37962,-1.170734 -2.38315,-1.15128 -1.061,-0.0025 -2.1278,0.0054 -3.17383,0.20725 -0.58375,0.130203 -0.82271,0.165946 -1.40018,0.370899 -0.26574,0.09432 -1.0234,0.466251 -0.78464,0.316216 9.11833,-5.729876 5.16968,-3.189354 3.29376,-1.795557 -0.44782,0.421479 -1.09522,0.995948 -1.46646,1.488635 -0.8589,1.139864 -1.36349,2.528937 -2.04778,3.769044 -0.98987,2.686795 -2.71306,8.924874 -7.35581,6.543339 -0.66172,-0.600547 -0.6267,-1.408797 -0.59228,-2.254535 0.006,-1.16043 0.0177,-2.320818 0.0244,-3.481245 0.002,-1.616245 0.021,-3.233144 -0.0436,-4.848603 -0.087,-1.851497 -0.22178,-3.707785 -0.63102,-5.520688 -0.28869,-1.33304 -0.46002,-2.679889 -0.66375,-4.02676 0,0 6.03186,-3.199937 6.03186,-3.199937 z"
       inkscape:connector-curvature="0" />
    <path
       style="fill:#ff7f2a;fill-opacity:1;stroke:#000000;stroke-width:0.19924888;stroke-miterlimit:4;stroke-dasharray:none;stroke-opacity:1"
       id="path6349"
       d="m 174.57856,53.280343 c 0.91799,1.761332 2.0149,3.417596 3.10805,5.072826 1.39386,2.199367 3.09287,4.196458 5.01749,5.9464 1.25321,1.116432 2.69238,2.021973 4.23664,2.677741 0.90807,0.347616 1.8766,0.379013 2.83583,0.392975 0.35396,-0.137569 0.76257,-0.141058 1.11606,-0.273301 1.75051,-0.654877 8.99417,-5.074316 -4.95812,2.85549 0.46217,-0.368116 0.98328,-0.761288 1.34176,-1.241577 2.0836,-0.957145 4.08077,-2.130848 6.2508,-2.871439 0.22177,-0.07568 0.11872,0.45442 0.1516,0.686424 0.16665,1.175715 0.0934,2.412802 0.0955,3.596287 -0.003,2.579127 -0.92244,4.995421 -1.80995,7.376053 -0.9348,2.26325 -1.94625,4.492991 -2.98605,6.709525 -0.38442,0.955328 -0.96216,1.818578 -1.33851,2.776494 -6.32409,3.073025 -5.53524,5.205236 -6.31716,2.571149 0,0 6.02705,-3.22755 6.02705,-3.22755 l 0,0 c -0.20736,2.395807 0.0277,0.112065 -5.99966,3.382391 0.29869,-0.235091 0.3781,-0.581889 0.54656,-0.914259 0.31084,-0.6133 0.73636,-1.162343 0.97057,-1.815513 1.10967,-2.199578 2.13435,-4.440783 3.11737,-6.699566 0.85814,-2.299786 1.7739,-4.625458 1.81969,-7.114602 -0.004,-0.914947 5.7e-4,-1.831611 -0.0548,-2.745384 -0.0143,-0.235049 -0.0365,-0.469581 -0.0594,-0.703941 -0.0127,-0.129318 -0.15758,-0.318011 -0.0474,-0.386916 1.91827,-1.199868 3.95619,-2.196866 5.93428,-3.2953 -0.45955,0.493861 0.16694,-0.206115 -0.35157,0.491992 -0.27044,0.364124 -0.76805,0.484364 -0.92595,0.952853 -2.23554,1.283821 -5.03895,3.855686 -8.04058,3.870559 -1.01896,-0.05536 -2.03035,-0.186102 -2.96176,-0.635313 -1.54367,-0.774096 -3.01013,-1.720779 -4.26532,-2.913549 -1.90676,-1.8378 -3.62223,-3.868705 -5.06959,-6.09011 -1.14074,-1.662252 -2.2443,-3.345276 -3.31107,-5.055695 0,0 5.92771,-3.375144 5.92771,-3.375144 z"
       inkscape:connector-curvature="0" />
    <path
       style="fill:#ff7f2a;fill-opacity:1;stroke:#000000;stroke-width:0.19924888;stroke-miterlimit:4;stroke-dasharray:none;stroke-opacity:1"
       id="path6351"
       d="m 201.44341,38.899679 c -1.86289,1.883187 -3.49482,3.974431 -5.24528,5.958837 -1.92581,2.058315 -3.69195,4.25754 -5.57065,6.356774 0,0 -6.17077,2.581704 -6.17077,2.581704 l 0,0 c 1.98416,-2.048843 3.72716,-4.320998 5.69028,-6.391154 1.72517,-1.916074 3.309,-3.950013 4.99809,-5.897307 0,0 6.29833,-2.608854 6.29833,-2.608854 z"
       inkscape:connector-curvature="0" />
    <path
       style="fill:#ff7f2a;fill-opacity:1;stroke:#000000;stroke-width:0.19924888;stroke-miterlimit:4;stroke-dasharray:none;stroke-opacity:1"
       id="path6353"
       d="m 61.387792,85.643973 c -0.23116,1.144773 -0.32418,2.310904 -0.390229,3.475003 -0.0337,1.094011 -0.09693,2.190484 -0.02678,3.283601 0.177922,2.335719 0.74763,4.624799 1.24867,6.90744 0.712069,3.301723 1.687881,6.538383 2.938334,9.674933 1.133436,2.4476 2.634398,4.23316 4.756023,5.85419 1.174871,0.80641 2.507934,1.14302 3.906085,1.25172 0.943339,-0.002 1.912516,0.11011 2.839929,-0.0895 0.1605,-0.0557 0.329695,-0.0908 0.4815,-0.16712 0.172883,-0.0869 0.654219,-0.41277 0.485171,-0.31865 -1.739144,0.96834 -3.435988,2.01339 -5.196682,2.94196 -0.262715,0.13855 0.473978,-0.36007 0.689206,-0.56475 0.771277,-0.73348 0.831365,-0.91576 1.454782,-1.80227 1.535873,-2.35571 2.189271,-5.06806 2.604607,-7.80999 0.264814,-2.1088 0.29703,-4.23618 0.284999,-6.35848 -0.0023,-1.08247 -0.02249,-2.164787 -0.03693,-3.247137 0,0 6.042931,-3.083947 6.042931,-3.083947 l 0,0 c -2.82e-4,1.092149 -0.0011,2.184301 -0.0038,3.276448 -0.03286,2.168026 -0.09333,4.338746 -0.349092,6.494076 -0.385569,2.79835 -1.000537,5.59578 -2.45272,8.05664 -0.213467,0.35411 -0.406388,0.72144 -0.640401,1.06232 -1.973521,2.87472 -5.486361,4.78711 -8.813741,5.59119 -0.973647,0.056 -1.953816,0.0462 -2.924361,-0.0553 -1.467341,-0.22015 -2.842063,-0.70955 -4.038662,-1.61463 -2.061103,-1.69793 -3.731125,-3.76068 -4.833284,-6.21265 -1.238219,-3.17461 -2.221812,-6.44192 -2.978983,-9.76475 -0.549134,-2.28289 -1.193602,-4.559858 -1.469317,-6.896026 -0.119882,-1.117859 -0.07337,-2.242156 -0.02721,-3.364187 0.06467,-1.177245 0.169765,-2.351024 0.31568,-3.521126 0,0 6.134241,-2.998998 6.134241,-2.998998 z"
       inkscape:connector-curvature="0" />
    <path
       style="fill:#ff7f2a;fill-opacity:1;stroke:#000000;stroke-width:0.19924888;stroke-miterlimit:4;stroke-dasharray:none;stroke-opacity:1"
       id="path6355"
       d="m 77.028666,83.230934 c 1.571281,-0.355566 3.177927,-0.519506 4.763818,-0.81162 3.371652,-0.431908 6.69581,-1.188035 9.978757,-2.057316 2.79893,-0.547181 5.442396,-1.678542 8.198835,-2.364438 0,0 -5.34593,4.095378 -5.34593,4.095378 l 0,0 c -2.670968,0.724108 -5.297771,1.617666 -8.004113,2.216107 -3.35403,0.860197 -6.735953,1.618751 -10.161281,2.137424 -1.610179,0.302543 -3.264625,0.433796 -4.820068,0.971923 0,0 5.389982,-4.187458 5.389982,-4.187458 z"
       inkscape:connector-curvature="0" />
    <path
       style="fill:#ff7f2a;fill-opacity:1;stroke:#000000;stroke-width:0.19924888;stroke-miterlimit:4;stroke-dasharray:none;stroke-opacity:1"
       id="path6357"
       d="m 100.08816,93.381668 c 0.82575,2.582918 1.96258,5.05289 2.97785,7.564372 1.61484,4.10094 3.23455,8.19946 4.58442,12.39669 0.70457,2.01644 1.07456,4.1153 1.52238,6.19496 0.73996,2.267 0.2102,0.48441 -6.02431,3.04768 -0.12969,0.0533 0.0204,-0.27975 0.0258,-0.41987 0.0239,-0.6175 0.0142,-1.23613 0.0104,-1.85386 0.17374,-2.38859 0.70201,-4.73738 1.09741,-7.09607 0.49452,-3.54958 1.27313,-7.03743 2.31197,-10.46481 0.67149,-1.71158 0.32728,-0.90283 1.02106,-2.43115 0,0 6.05859,-2.752197 6.05859,-2.752197 l 0,0 c -0.7662,1.506488 -0.38243,0.713489 -1.1429,2.383054 -1.1049,3.383543 -1.90017,6.840153 -2.35435,10.374243 -0.32257,2.30336 -0.77949,4.58999 -0.96502,6.91023 0.0393,4.22292 0.8558,2.05366 -6.04436,5.67653 -0.0568,0.0298 -0.0122,-0.12767 -0.0183,-0.19151 -0.18214,-2.11993 -0.61625,-4.20679 -1.19871,-6.25228 -1.26871,-4.20283 -2.844491,-8.30033 -4.556508,-12.34184 -1.084935,-2.49942 -2.241671,-4.966815 -3.289108,-7.48247 0,0 5.983736,-3.261702 5.983736,-3.261702 z"
       inkscape:connector-curvature="0" />
    <path
       style="fill:#ff7f2a;fill-opacity:1;stroke:#000000;stroke-width:0.19924888;stroke-miterlimit:4;stroke-dasharray:none;stroke-opacity:1"
       id="path6359"
       d="m 116.95673,107.74817 c 0.22508,-1.93247 0.90866,-3.7017 1.78583,-5.42159 1.01643,-1.70791 2.47885,-2.98947 4.19751,-3.961333 7.06282,-3.99387 4.5607,-3.061789 8.44169,-4.359616 2.26841,-0.676718 4.63016,-0.853954 6.98309,-0.92219 2.38887,0.0055 4.15171,1.508868 5.78114,3.084511 2.34997,2.634903 3.83837,5.822368 4.95434,9.136388 0.69395,2.19711 0.91859,4.48754 1.00626,6.7775 0.0818,1.45058 -0.0446,2.95335 -1.08088,4.07352 -0.24309,0.26278 -0.53929,0.4709 -0.80893,0.70635 -2.2861,1.30209 -4.5373,2.66747 -6.85831,3.90626 -0.44387,0.23691 -0.93879,0.36481 -1.41989,0.51206 -2.17966,0.6671 -4.45264,0.96592 -6.70893,1.2255 -2.03498,0.16912 -4.08666,0.33106 -6.12212,0.0649 -1.38488,-0.18109 -1.89712,-0.35966 -3.26458,-0.7126 -2.77475,-0.86062 -5.50848,-2.0228 -7.74499,-3.92136 -0.3589,-0.30466 -0.67777,-0.65355 -1.01665,-0.98033 -1.21224,-1.26384 -1.96908,-2.75573 -2.25924,-4.4688 -0.1314,-1.3703 0.41124,-2.57066 1.0248,-3.75484 0.71995,-1.43645 1.74442,-2.65892 2.87869,-3.78181 2.66518,-2.28191 5.75353,-4.2411 8.99576,-5.538365 0.66335,-0.190866 0.33149,-0.111215 0.99514,-0.240752 0,0 -5.39931,4.129897 -5.39931,4.129897 l 0,0 c -0.60991,0.19093 -0.30626,0.0809 -0.91026,0.33218 -2.2266,1.1601 -1.208,0.63867 4.81278,-2.82835 0.18139,-0.10446 -0.35283,0.22535 -0.53022,0.33647 -0.6068,0.3801 -1.18871,0.78667 -1.73983,1.24628 -1.14251,1.05975 -2.21118,2.18912 -2.95221,3.57718 -0.5728,1.07118 -1.17234,2.10279 -1.17614,3.35813 0.17772,1.58937 0.80677,2.97737 1.90169,4.16545 0.31457,0.30987 0.60885,0.64179 0.94371,0.9296 2.16698,1.8625 4.8523,2.93734 7.56757,3.71483 1.46357,0.3309 1.76849,0.44859 3.23914,0.59558 2.00664,0.20056 4.026,0.0427 6.02576,-0.14892 2.24231,-0.28107 4.48555,-0.60569 6.62498,-1.36959 0.48054,-0.17158 1.83364,-0.87799 1.41262,-0.58972 -1.45354,0.99524 -3.01934,1.81568 -4.529,2.72352 1.87336,-1.28862 2.16203,-1.9209 2.12477,-4.19727 -0.0393,-2.2466 -0.17907,-4.49886 -0.80104,-6.67228 -1.00389,-3.24639 -2.43548,-6.34398 -4.80837,-8.833911 -1.61025,-1.445946 -3.30056,-2.711509 -5.57208,-2.596797 -2.29007,0.08316 -4.58575,0.283472 -6.7726,1.021554 -3.03827,1.152753 -1.41687,0.632039 2.906,-2.068805 0.43496,-0.271754 -0.90913,0.477752 -1.34089,0.754561 -0.84431,0.541305 -1.47783,1.065389 -2.14197,1.813797 -0.28842,0.325013 -0.52968,0.688995 -0.79452,1.033492 -0.87773,1.610459 -1.63379,3.287059 -1.71607,5.150719 0,0 -6.13424,2.999 -6.13424,2.999 z"
       inkscape:connector-curvature="0" />
    <path
       style="fill:#ff7f2a;fill-opacity:1;stroke:#000000;stroke-width:0.19924888;stroke-miterlimit:4;stroke-dasharray:none;stroke-opacity:1"
       id="path6361"
       d="m 158.7722,104.18575 c 9.82263,-5.555352 5.54999,-3.6244 3.91441,-1.63866 -0.91832,1.11493 -1.56594,2.41352 -2.24242,3.67916 -1.2209,2.48175 -1.99343,5.1552 -2.57745,7.85036 -0.0578,1.08635 -0.76085,2.59157 -0.0945,3.60181 0.63324,0.38368 1.37604,0.28308 2.02385,0.007 0.4551,-0.17162 0.91083,-0.30943 1.35181,-0.51659 0.16876,-0.0793 0.6648,-0.33726 0.50326,-0.24415 -6.03987,3.48108 -6.8868,4.06142 -4.66202,2.58916 1.71802,-1.03089 3.02122,-2.50079 4.14944,-4.12941 1.27708,-1.93143 1.79604,-4.15931 2.09873,-6.41956 0.22525,-2.37194 0.26057,-4.76183 0.17647,-7.14176 -0.22854,-3.412644 -0.53962,-6.820932 -0.96422,-10.214784 -0.35935,-2.282345 -0.44538,-4.609186 -0.84587,-6.884805 -1.17691,-1.983994 -0.35201,-0.543546 6.01843,-2.952093 0.19216,-0.07265 -0.0377,0.409236 -0.0488,0.614375 -0.0169,0.312911 -0.0337,0.626079 -0.0351,0.939445 -0.001,0.289071 0.0676,2.549025 0.0703,2.642074 0.294,5.003958 0.82538,9.990762 1.3382,14.976028 0.4613,5.47991 1.58012,10.84882 2.8407,16.18892 0.73385,3.31005 1.92929,6.32273 3.59176,9.2614 0.72245,1.13361 1.49707,2.21753 2.46468,3.15187 0,0 -5.75233,3.51399 -5.75233,3.51399 l 0,0 c -0.94343,-1.02854 -1.71737,-2.17798 -2.45079,-3.36478 -0.48319,-0.88223 -0.91974,-1.64096 -1.33542,-2.56215 -1.00168,-2.21987 -1.63409,-4.59136 -2.16711,-6.95976 -1.19741,-5.3894 -2.29129,-10.79795 -2.77381,-16.30871 -0.56605,-4.954329 -1.0971,-9.913343 -1.61826,-14.872137 -0.0864,-1.182412 -0.17288,-2.35804 -0.21233,-3.542535 -0.007,-0.20548 -0.19757,-0.501833 -0.0267,-0.616201 1.94012,-1.298789 4.0364,-2.349796 6.097,-3.447454 0.0552,-0.02941 0.0172,0.123932 0.0258,0.185899 0.10257,2.338132 0.33418,4.66867 0.62094,6.990899 0.40942,3.402304 0.70611,6.815294 1.06103,10.223404 0.12045,2.404275 0.0944,4.820065 -0.0824,7.221235 -0.28548,2.33002 -0.76814,4.6507 -1.97753,6.69754 -1.04641,1.67852 -2.28388,3.27116 -3.98032,4.33925 -2.72951,1.96414 -5.62143,3.86017 -8.8719,4.78305 -0.93436,0.13047 -1.86903,0.0158 -2.52691,-0.72874 -0.72587,-1.27383 -0.22975,-2.75342 -0.0201,-4.11672 0.59198,-2.76129 1.44782,-5.47826 2.60336,-8.05642 0.79627,-1.58996 1.54653,-3.28023 2.73715,-4.62792 1.8071,-2.04552 5.4308,-2.45628 6.96888,-4.299134 0,0 -5.38998,4.187454 -5.38998,4.187454 z"
       inkscape:connector-curvature="0" />
    <path
       style="fill:#ff7f2a;fill-opacity:1;stroke:#000000;stroke-width:0.19924888;stroke-miterlimit:4;stroke-dasharray:none;stroke-opacity:1"
       id="path6363"
       d="m 186.99787,105.82656 c 0.61031,2.37057 1.32699,4.71133 2.10341,7.03222 1.01663,3.20479 1.83367,6.47173 2.54141,9.7577 0.45153,1.96449 0.86497,3.93884 1.10573,5.94115 0.37342,2.91505 0.86181,1.102 -5.94113,3.57052 -0.17185,0.0624 0.0114,-0.36546 0.0165,-0.54821 0.007,-0.25962 0.0135,-0.51926 0.0203,-0.77889 0.47771,-3.7821 1.12045,-7.54757 1.83957,-11.2916 0.52383,-2.51571 1.1476,-5.13021 2.80589,-7.15989 2.06666,-1.81829 1.69184,-1.54343 6.70895,-3.63607 0.21173,-0.0883 0.37713,0.26711 0.53287,0.43555 0.61985,0.67041 1.0247,1.60587 1.45443,2.39703 1.23159,2.62398 2.63453,5.1557 4.07339,7.67013 1.33447,2.3264 2.70009,4.63985 3.93932,7.01887 1.66861,3.11112 2.26736,0.55199 -5.14727,4.20013 -0.0675,0.0332 0.15748,-0.0506 0.19302,-0.11693 0.0752,-0.1403 0.0785,-0.30856 0.11779,-0.46284 0,0 6.12466,-2.9547 6.12466,-2.9547 l 0,0 c -0.029,0.15476 -0.0786,0.30705 -0.0871,0.46428 -0.01,0.18073 0.18806,0.44944 0.0325,0.54203 -5.93496,3.53317 -5.46132,5.00202 -7.04442,1.64023 -1.1771,-2.39861 -2.48091,-4.73381 -3.82631,-7.04146 -1.45898,-2.50475 -2.84748,-5.04612 -4.1708,-7.6245 -0.32209,-0.55928 -0.61172,-1.10451 -0.99687,-1.62306 -0.11179,-0.15052 -0.22169,-0.31015 -0.37268,-0.4213 -0.0824,-0.0607 -0.38473,-0.0178 -0.29834,-0.0727 4.17717,-2.65323 7.53758,-4.14627 5.01176,-3.00868 -2.006,1.70874 -2.61961,4.48621 -3.22928,6.9311 -0.76088,3.65108 -1.34244,7.33498 -1.65474,11.05363 0.007,0.25375 0.0145,0.50749 0.0209,0.76125 0.005,0.18104 0.16219,0.4418 0.0121,0.54316 -6.63904,4.48396 -5.95412,5.72795 -6.12581,2.64153 -0.16299,-2.0069 -0.50332,-3.99116 -0.9315,-5.95815 -0.62215,-3.27643 -1.44222,-6.52297 -2.48945,-9.68961 -0.79507,-2.29242 -1.54045,-4.59947 -2.28406,-6.90894 0,0 5.9452,-3.30302 5.9452,-3.30302 z"
       inkscape:connector-curvature="0" />
    <path
       style="fill:#ff7f2a;fill-opacity:1;stroke:#000000;stroke-width:0.19924888;stroke-miterlimit:4;stroke-dasharray:none;stroke-opacity:1"
       id="path6365"
       d="m 218.67883,109.07727 c 1.02126,3.85258 2.82677,7.41863 4.90069,10.7991 1.32794,1.91892 2.60031,4.06992 4.73673,5.1745 0.14503,0.002 0.29402,0.0399 0.43508,0.006 0.13029,-0.0311 0.46953,-0.25815 0.35184,-0.19419 -1.79965,0.97798 -3.5582,2.03544 -5.39769,2.93627 -0.2099,0.10279 0.3253,-0.33701 0.468,-0.52211 0.32779,-0.42517 0.52051,-0.81337 0.78003,-1.28039 0.54377,-1.12267 1.13415,-2.22418 1.77699,-3.29343 2.97528,-1.78314 4.86587,-5.60539 6.3403,-3.07278 0.4261,0.7319 0.40821,2.05954 0.47265,2.87582 0.3362,2.53824 -0.3551,4.91573 -1.15479,7.29214 -1.1785,3.12767 -2.78269,6.05281 -4.45479,8.93596 -1.10415,1.95577 -2.26843,3.8792 -3.23915,5.9062 -1.19738,2.40328 -0.0576,0.27935 -6.26843,3.6053 0,0 5.6574,-3.88876 5.6574,-3.88876 l 0,0 c -5.9214,3.40664 -7.34095,4.97279 -5.55088,3.06582 1.09223,-2.0274 2.20905,-4.03872 3.39229,-6.01622 1.66791,-2.84812 3.31751,-5.7085 4.49131,-8.8069 0.77466,-2.2747 1.50675,-4.55846 1.17877,-6.99666 -0.0657,-0.67361 -0.086,-1.02853 -0.19877,-1.67607 -0.0315,-0.18084 -0.0689,-0.36093 -0.11625,-0.53828 -0.0196,-0.0736 -0.15025,-0.25025 -0.0841,-0.21245 0.0867,0.0496 0.0702,0.30231 0.15801,0.25469 1.93516,-1.04926 3.77125,-2.27171 5.65688,-3.40756 -0.85438,0.79569 -1.33629,2.19733 -1.91353,3.19946 -1.44781,3.09167 -4.6245,6.95412 -8.45413,5.50556 -2.07812,-1.36352 -3.35048,-3.5525 -4.66313,-5.60609 -2.04124,-3.46541 -3.77253,-7.08197 -5.28656,-10.80837 0,0 5.98526,-3.2367 5.98526,-3.2367 z"
       inkscape:connector-curvature="0" />
    <path
       style="fill:#ff7f2a;fill-opacity:1;stroke:#000000;stroke-width:0.19924888;stroke-miterlimit:4;stroke-dasharray:none;stroke-opacity:1"
       id="path6367"
       d="m 231.43972,98.767363 c 1.90474,-1.139043 5.34729,-2.397986 -3.53556,1.996127 -0.44749,0.22136 0.80746,-0.58856 1.19074,-0.908476 0.98129,-0.819063 1.65801,-1.531753 2.56937,-2.436241 2.63507,-2.585068 4.96921,-5.44753 7.4892,-8.139772 0,0 6.0882,-2.536266 6.0882,-2.536266 l 0,0 c -2.60368,2.64429 -4.9249,5.545571 -7.54636,8.174143 -0.64218,0.661069 -1.7742,1.849617 -2.47312,2.481778 -2.65826,2.404375 -5.96702,3.943984 -9.10921,5.629594 0,0 5.32674,-4.260887 5.32674,-4.260887 z"
       inkscape:connector-curvature="0" />
    <path
       style="fill:#ff7f2a;fill-opacity:1;stroke:#000000;stroke-width:0.19924888;stroke-miterlimit:4;stroke-dasharray:none;stroke-opacity:1"
       id="path6369"
       d="m 32.856494,164.18295 c 0.304569,-1.65388 0.8209,-3.28825 1.78161,-4.6871 0.267349,-0.38927 0.580192,-0.74526 0.870286,-1.1179 3.99266,-3.92916 9.270006,-6.47098 14.653096,-7.86926 2.394746,-0.47958 4.848456,-0.9428 7.301473,-0.82151 2.57114,0.46063 4.1614,2.81221 5.623811,4.76116 1.725252,2.41652 3.232212,4.99888 4.333265,7.76226 0.59138,1.48423 0.934427,2.71025 1.397635,4.22526 0.632979,2.40946 1.329145,5.08253 0.373501,7.51405 -0.162094,0.41243 -0.405496,0.78808 -0.608248,1.18211 -0.31295,0.3744 -0.595125,0.77682 -0.938854,1.12317 -0.377707,0.38059 -0.763778,0.76591 -1.218283,1.0504 -4.846704,3.03369 -6.902569,4.54833 -11.800027,5.63566 -3.00318,0.48929 -6.073436,0.65971 -9.106346,0.41279 -4.438294,-0.73812 -8.267183,-2.80449 -12.048315,-5.12988 -2.721122,-1.94494 -4.937444,-4.44167 -6.157042,-7.56773 -0.680799,-2.64219 0.72006,-5.13153 1.874193,-7.42603 1.388959,-2.53923 3.277867,-4.73661 5.265101,-6.82023 0.215841,-0.20001 0.431681,-0.40003 0.647525,-0.60004 0,0 6.223996,-2.52562 6.223996,-2.52562 l 0,0 c -0.233982,0.18918 -0.467967,0.37836 -0.701949,0.56754 -2.066352,2.00129 -3.975819,4.1816 -5.439012,6.67032 -1.086967,2.1183 -2.466918,4.42744 -2.02184,6.89085 1.039258,3.04542 3.079652,5.47895 5.711823,7.32319 3.753628,2.30249 7.557473,4.26978 12.00229,4.77947 2.999703,0.15156 6.02758,0.0144 8.980359,-0.56433 1.30368,-0.32939 1.797227,-0.40722 3.05694,-0.91793 0.518677,-0.21028 1.988747,-1.0171 1.523188,-0.70646 -9.947651,6.63743 -3.628531,2.13457 -2.889044,1.48684 0.345829,-0.30292 0.6488,-0.65153 0.973201,-0.9773 0.220661,-0.35269 0.478205,-0.68482 0.66198,-1.05806 1.118184,-2.27098 0.479504,-4.90902 -0.04947,-7.23931 -0.476651,-1.7009 -0.653954,-2.49692 -1.319047,-4.16966 -1.08042,-2.71729 -2.582356,-5.2453 -4.326529,-7.58547 -1.442923,-1.79036 -3.010735,-3.93381 -5.48767,-4.15585 -2.366936,-0.0381 -4.729553,0.33417 -7.030071,0.86652 -1.465611,0.41513 -1.944361,0.50671 -3.368878,1.0913 -0.564269,0.23157 -2.165641,1.10816 -1.663889,0.76136 1.302701,-0.90037 2.69774,-1.66111 4.081021,-2.43197 0.461588,-0.25723 -0.893897,0.56657 -1.312444,0.88914 -0.390118,0.30065 -0.739125,0.65118 -1.108687,0.97678 -1.381351,1.63156 -2.365999,3.22492 -2.638148,5.38708 0,0 -6.102503,3.01439 -6.102503,3.01439 z"
       inkscape:connector-curvature="0" />
    <path
       style="fill:#ff7f2a;fill-opacity:1;stroke:#000000;stroke-width:0.19924888;stroke-miterlimit:4;stroke-dasharray:none;stroke-opacity:1"
       id="path6371"
       d="m 74.380205,127.35899 c 1.301728,3.01438 2.695028,5.98333 3.927664,9.02741 2.063039,5.06904 3.428204,10.35439 4.478675,15.71219 0.604176,3.28894 0.947095,6.61895 1.099628,9.95763 0.216896,0.95223 -0.351093,2.18856 -0.1674,3.11218 -6.971374,3.23189 -6.298015,4.55571 -6.291247,0.0725 0.07954,-2.41126 0.703128,-3.79437 2.321817,-5.56878 4.268851,-3.46573 7.528949,-4.93445 12.483352,-5.36769 3.338025,0.14461 5.311569,1.95471 7.407992,4.35107 2.259634,2.85428 3.315674,6.30016 4.028444,9.81074 0.34026,1.97085 0.10187,4.27465 -1.79517,5.42527 -2.252415,1.36617 -4.584719,2.59606 -6.877077,3.89409 -3.180241,1.08522 -6.589689,1.35735 -9.93111,1.39354 -4.678296,-0.32953 -8.715485,-2.62276 -12.524869,-5.17297 -2.338564,-1.70782 -4.737752,-3.49576 -6.15742,-6.0756 -0.347283,-0.79658 -0.455744,-1.572 0.038,-2.3114 0,0 6.338934,-2.53899 6.338934,-2.53899 l 0,0 c -0.846585,0.25472 -0.721419,0.7467 -0.525198,1.50724 1.226413,2.53493 3.498469,4.31098 5.712632,5.95947 0.652176,0.43975 1.285804,0.90835 1.956528,1.31925 3.180551,1.94851 6.708419,3.3189 10.467001,3.44339 3.317649,-0.0861 6.713166,-0.3597 9.803289,-1.66114 -1.491263,0.90282 -2.982534,1.80564 -4.473804,2.70845 0.336473,-0.22072 0.708039,-0.39552 1.009418,-0.66217 0.265772,-0.23515 0.488369,-0.52202 0.672115,-0.8256 0.610983,-1.00947 0.619921,-2.17127 0.467916,-3.30009 -0.596496,-3.43103 -1.568944,-6.77345 -3.811702,-9.52427 -2.11232,-2.32003 -3.876581,-3.82909 -7.16771,-3.76361 -1.133715,0.1248 -2.254524,0.26209 -3.352541,0.5891 -0.391981,0.11674 -1.494172,0.63864 -1.157952,0.40576 0.55974,-0.3877 7.055135,-4.24607 3.54531,-2.15913 -1.726038,1.61678 -2.331382,2.66594 -2.457851,5.05259 0.05352,4.44318 0.966696,2.16287 -6.091053,5.62149 0.04624,0.0382 0.08303,0.13687 0.138718,0.1146 0.229704,-0.0919 0.423712,-2.51528 0.450162,-2.80076 -0.04134,-3.34886 -0.241664,-6.69642 -0.790443,-10.00506 -0.940291,-5.33395 -2.326911,-10.57714 -4.448652,-15.57427 -1.293794,-3.0044 -2.698053,-5.95835 -4.265156,-8.83105 0,0 5.938765,-3.33538 5.938765,-3.33538 z"
       inkscape:connector-curvature="0" />
    <path
       style="fill:#ff7f2a;fill-opacity:1;stroke:#000000;stroke-width:0.19924888;stroke-miterlimit:4;stroke-dasharray:none;stroke-opacity:1"
       id="path6373"
       d="m 107.04555,148.19067 c 1.78779,1.90702 2.90721,4.35176 4.01652,6.69066 1.66648,3.48119 2.92698,7.12805 4.26692,10.74079 0.73285,1.87093 1.11492,3.84038 1.60905,5.77817 0.85773,2.21979 0.23975,0.47615 -5.99185,3.01967 -0.12982,0.053 0.0273,-0.27919 0.0348,-0.4192 0.0101,-0.18785 0.0139,-0.376 0.0179,-0.56408 0.0125,-0.57797 0.009,-0.79532 0.008,-1.37802 0.001,-1.65238 8.4e-4,-3.30488 -0.009,-4.95725 0.0308,-1.48076 -0.0654,-2.96487 0.0197,-4.4438 0.25832,-1.54605 1.20049,-2.68281 2.4004,-3.61947 4.21902,-2.72716 5.98816,-4.10159 10.24458,-4.33744 1.46618,-0.0406 2.93331,-0.0294 4.39984,-0.018 1.44743,-0.0108 2.91617,0.0536 4.32733,0.39535 0.64997,0.30345 0.35554,0.11683 0.88908,0.55061 0,0 -5.75357,3.64391 -5.75357,3.64391 l 0,0 c -0.41116,-0.26418 -0.1805,-0.14792 -0.70178,-0.32867 -1.39244,-0.26103 -2.80747,-0.32835 -4.22255,-0.29747 -1.45774,-0.004 -2.91767,-0.0314 -4.37322,0.0654 -0.7066,0.067 -1.40838,0.13878 -2.09886,0.31316 -2.29543,0.57968 -5.67259,2.97501 3.55782,-2.44997 -1.21245,0.72673 -2.17393,1.68054 -2.60718,3.06226 -0.18285,1.45868 -0.0377,2.9408 -0.0851,4.40739 -0.004,1.64799 0.006,3.29615 0.0297,4.94395 0.006,0.646 0.0169,1.29173 0.032,1.93759 0.004,0.14874 0.13685,0.36611 0.0115,0.4462 -6.08998,3.88999 -5.69646,5.73083 -6.13823,3.23492 -0.26374,-1.97382 -0.6927,-3.91963 -1.34455,-5.80464 -1.25277,-3.62285 -2.48088,-7.2603 -4.19717,-10.69892 -1.10251,-2.21883 -2.22564,-4.62637 -4.12076,-6.28303 0,0 5.7791,-3.63001 5.7791,-3.63001 z"
       inkscape:connector-curvature="0" />
    <path
       style="fill:#ff7f2a;fill-opacity:1;stroke:#000000;stroke-width:0.19924888;stroke-miterlimit:4;stroke-dasharray:none;stroke-opacity:1"
       id="path6375"
       d="m 147.15688,166.42992 c -0.73571,-0.78129 -1.55265,-1.50439 -2.44892,-2.09861 -1.05038,-0.614 -2.1831,-1.03522 -3.30531,-1.49467 -1.33786,-0.51093 -2.74236,-0.77321 -4.16327,-0.8998 -0.33388,-0.0186 -0.69838,-0.0739 -1.02764,0.0385 -0.15777,0.0539 -0.58052,0.32816 -0.43499,0.24684 1.78522,-0.99755 3.5481,-2.036 5.35403,-2.99552 0.20892,-0.111 -0.38427,0.27899 -0.55311,0.44471 -0.19036,0.18685 -0.34655,0.4056 -0.51982,0.60841 -1.17901,1.60063 -1.68035,3.51732 -2.04513,5.43831 -0.24606,1.67572 -0.39477,3.38292 -0.2922,5.07656 0.0419,1.06854 0.497,1.98023 1.30934,2.65999 0.66459,0.41769 1.43217,0.59483 2.12763,0.17164 -12.95942,6.58305 -6.04403,4.10597 -4.82456,2.48082 0.46199,-0.6157 0.67029,-1.35324 0.9157,-2.07007 0.50203,-1.4396 0.61818,-2.95892 0.8258,-4.45611 0.59891,-2.81428 4.68415,-5.86141 7.22344,-4.13718 1.46692,0.8963 2.83784,1.9447 4.18048,3.01608 2.88615,2.37129 5.55222,4.9866 8.36082,7.44617 2.71304,2.46817 5.57486,4.75187 8.73201,6.62356 0.27006,0.13331 0.52746,0.29612 0.81017,0.39992 0.15756,0.0579 0.34118,0.14212 0.49713,0.0801 0.10724,-0.0427 0.21999,-0.38084 0.11889,-0.32519 -7.59024,4.1779 -4.65703,5.29662 -6.05814,2.68314 -0.61961,-0.86158 -1.09381,-1.81863 -1.74595,-2.65636 -0.27639,-0.44402 -0.67308,-0.78822 -1.04827,-1.14527 0,0 5.79464,-3.57331 5.79464,-3.57331 l 0,0 c 0.40626,0.38179 0.81648,0.76431 1.10846,1.24564 0.63684,0.88453 1.1234,1.8649 1.77517,2.74026 0.21684,0.3693 0.55761,0.9247 0.50383,0.96856 -4.50791,3.67705 -4.23275,5.11575 -7.34093,3.18161 -3.0682,-2.0206 -5.88573,-4.36727 -8.62221,-6.81482 -2.8297,-2.44466 -5.54463,-5.02173 -8.50785,-7.30852 -1.35889,-1.01226 -2.73042,-2.0511 -4.25997,-2.79378 -0.27665,-0.0435 -0.14834,-0.0634 -0.38701,0.0443 1.87781,-1.09019 3.75562,-2.18039 5.63342,-3.27059 0.0762,-0.0459 -0.18525,-0.008 -0.26487,0.0319 -0.21822,0.10851 -0.31363,0.40674 -0.40707,0.59356 -0.33873,1.50598 -0.34426,3.08498 -0.8293,4.56634 -0.24478,0.74583 -0.41733,1.55476 -0.77601,2.25743 -1.22531,2.40042 -5.31406,3.49046 -6.80799,4.36894 -0.92959,0.0807 -1.77669,-0.16832 -2.50736,-0.76754 -0.87424,-0.84473 -1.45712,-1.89437 -1.53227,-3.13028 -0.13418,-1.75139 0.0891,-3.5182 0.27385,-5.25868 0.36525,-1.97388 0.78202,-3.98349 1.88899,-5.69423 1.80415,-2.90898 5.41057,-5.3373 8.8871,-4.93808 1.44746,0.19749 2.86797,0.54018 4.23186,1.07161 1.17861,0.45741 2.37073,0.89679 3.43377,1.5961 0.92243,0.67302 1.77652,1.4379 2.58164,2.24644 0,0 -5.85802,3.50123 -5.85802,3.50123 z"
       inkscape:connector-curvature="0" />
    <path
       style="fill:#ff7f2a;fill-opacity:1;stroke:#000000;stroke-width:0.19924888;stroke-miterlimit:4;stroke-dasharray:none;stroke-opacity:1"
       id="path6377"
       d="m 151.61004,149.62057 c 1.79733,-0.0434 3.59659,-0.37266 5.3716,-0.66348 3.08851,-0.5582 6.12581,-1.31054 9.12652,-2.22492 1.49511,-0.4924 3.00213,-0.95691 4.48922,-1.47323 0.95707,-0.33229 1.83273,-0.69662 2.82848,-0.88881 0.57997,-0.0618 0.31898,-0.10839 0.79063,0.0866 0,0 -5.61968,3.90732 -5.61968,3.90732 l 0,0 c -0.2922,0.0567 -0.10937,0.0229 -0.54963,0.0954 -2.41828,0.60947 -4.72052,1.63567 -7.13034,2.28164 -3.04696,0.90678 -6.14251,1.63324 -9.26682,2.22068 -1.84074,0.28837 -3.68912,0.63854 -5.55589,0.66644 0,0 5.51591,-4.00755 5.51591,-4.00755 z"
       inkscape:connector-curvature="0" />
    <path
       style="fill:#ff7f2a;fill-opacity:1;stroke:#000000;stroke-width:0.19924888;stroke-miterlimit:4;stroke-dasharray:none;stroke-opacity:1"
       id="path6379"
       d="m 170.45573,161.11184 c 2.05536,0.17462 4.10879,0.48844 6.15792,0.76047 3.65142,0.44578 7.30925,0.83702 10.96109,1.27934 2.8121,0.46223 5.75661,0.56996 8.34699,1.8585 1.23357,0.87304 1.63398,1.69022 1.38222,3.17493 -1.09113,2.48341 -3.4487,4.10542 -5.58378,5.64003 -0.54118,0.32692 -1.07539,0.66569 -1.62355,0.98076 -2.41527,1.38822 -4.82248,2.79146 -7.26626,4.12884 -0.54685,0.29927 -1.13251,0.52143 -1.70049,0.77833 -1.38433,0.62613 -2.77379,1.2352 -4.17867,1.81347 -0.58247,0.28315 -1.23643,0.4005 -1.82156,0.6789 -0.16715,0.0795 -0.62922,0.38991 -0.46839,0.29828 8.13461,-4.63473 7.50587,-3.60698 5.41934,-3.18026 0.44914,-0.0883 0.90461,0.23011 1.30202,0.39119 0.17041,0.0691 0.34645,0.12336 0.51967,0.18504 0.18873,0.0796 0.37746,0.15928 0.56619,0.23893 1.63705,0.86467 3.34666,1.56958 5.08582,2.19803 2.61869,0.80147 5.3449,1.10399 8.06704,1.27148 1.85616,0.0921 3.71534,0.0807 5.57305,0.0623 0.53498,0.002 1.1208,-0.0184 1.63444,-0.19869 0.12441,-0.0437 0.46372,-0.25116 0.34902,-0.18614 -5.66301,3.21012 -7.77052,2.83025 -5.50881,3.20753 0.0321,0.0687 0.0642,0.13745 0.0962,0.20618 0,0 5.95412,-3.42511 5.95412,-3.42511 l 0,0 c 0.074,0.14405 0.14799,0.2881 0.22199,0.43214 -0.28304,3.05286 -5.42748,3.94505 -8.20844,3.93362 -1.84377,-0.0116 -3.68816,-0.0351 -5.52868,-0.1559 -2.75404,-0.23116 -5.50024,-0.6221 -8.15119,-1.43104 -1.77617,-0.62243 -3.51592,-1.33126 -5.21337,-2.14605 -0.5187,-0.19974 -1.03709,-0.40538 -1.56091,-0.5914 -0.23907,-0.0849 -0.61889,-0.18003 -0.83335,-0.32824 -0.13639,-0.0943 -0.24048,-0.2283 -0.36072,-0.34245 -1.28601,-2.97049 5.53811,-4.074 8.07799,-5.22564 1.36735,-0.56552 2.7301,-1.1446 4.07207,-1.76863 0.55899,-0.25993 2.17859,-1.14479 1.66707,-0.80072 -0.94646,0.63664 -6.635,3.85471 -2.27061,1.37652 2.06301,-1.43084 4.23384,-2.933 5.5617,-5.11854 0.41467,-1.1017 0.0743,-1.75201 -0.88929,-2.39708 -2.49607,-1.22104 -5.33706,-1.35449 -8.03945,-1.79812 -3.67664,-0.44848 -7.36265,-0.81809 -11.04415,-1.22387 -2.08404,-0.24758 -4.17986,-0.57108 -6.28023,-0.56943 0,0 5.51591,-4.00755 5.51591,-4.00755 z"
       inkscape:connector-curvature="0" />
    <path
       style="fill:#ff7f2a;fill-opacity:1;stroke:#000000;stroke-width:0.19924888;stroke-miterlimit:4;stroke-dasharray:none;stroke-opacity:1"
       id="path6381"
       d="m 178.72944,171.68381 c 2.16235,0.0513 4.27336,0.64222 6.36822,1.13024 3.70175,0.86261 7.39086,1.76384 11.14067,2.39353 2.47987,0.34024 4.94352,0.78015 7.43878,0.9955 0.0615,0.23163 1.11394,-0.10381 1.27915,0.0908 1.97178,2.32297 -3.57816,4.50605 -6.05692,3.80477 -0.38785,-0.06 -0.74693,-0.13959 -1.11588,-0.27327 0,0 5.62879,-3.84434 5.62879,-3.84434 l 0,0 c 0.37499,0.0857 0.75347,0.15226 1.12623,0.24758 2.48911,0.66811 -0.54,-0.21612 -5.56254,3.4105 -0.84405,0.60946 1.32376,0.72115 -0.15343,0.53477 -0.20797,-0.0262 -0.41625,-0.05 -0.62438,-0.075 -2.44744,-0.29077 -4.86373,-0.77361 -7.29813,-1.15302 -3.76041,-0.69062 -7.47694,-1.5763 -11.21476,-2.37685 -2.12871,-0.44669 -4.27965,-0.98388 -6.47171,-0.87773 0,0 5.51591,-4.00755 5.51591,-4.00755 z"
       inkscape:connector-curvature="0" />
    <path
       style="fill:#ff7f2a;fill-opacity:1;stroke:#000000;stroke-width:0.19924888;stroke-miterlimit:4;stroke-dasharray:none;stroke-opacity:1"
       id="path6383"
       d="m 208.13603,171.03218 c 0.91683,-0.69347 1.79747,-1.45442 2.64047,-2.23869 0.63751,-0.68336 1.42583,-1.18863 2.2299,-1.65153 2.12173,-1.22148 4.24458,-2.441 6.36686,-3.66149 1.24971,-0.72668 2.65053,-1.10282 4.06754,-1.32723 1.02194,-0.13558 2.0544,-0.13379 3.08319,-0.13286 1.87859,0.31767 2.63953,2.46304 3.36938,3.97583 0.78149,2.28433 1.61776,4.67946 1.69158,7.12307 0.0129,0.42548 -0.0356,0.8506 -0.0534,1.2759 -0.24008,2.05047 -1.16326,3.99514 -2.69393,5.40628 -0.29949,0.27609 -0.642,0.50152 -0.963,0.75228 -3.3995,2.11256 -6.72962,4.40959 -10.70664,5.09276 -1.61037,0.3149 -2.3382,-0.0648 -3.27997,-1.36663 -1.14236,-1.80546 -1.68453,-3.88886 -2.34054,-5.89986 -0.58838,-1.90852 -0.96533,-3.87322 -1.19087,-5.85536 -0.0736,-1.00218 0.0298,-1.95689 0.55296,-2.82169 0.85285,-0.97228 1.88663,-1.79468 2.92942,-2.55703 0.18382,-0.1223 0.36763,-0.2446 0.55145,-0.3669 0,0 6.3002,-2.45748 6.3002,-2.45748 l 0,0 c -0.18673,0.11916 -0.37346,0.23833 -0.56019,0.35749 -1.07262,0.67087 -1.98424,1.5339 -2.97138,2.32045 -0.66733,0.75125 -0.79339,1.39505 -0.81709,2.40361 0.14891,1.95289 0.44906,3.89543 1.04106,5.7678 0.63217,1.93629 1.15782,3.94716 2.31666,5.65291 0.93652,1.14556 1.46543,0.99625 2.85639,0.7469 2.88284,-0.63463 8.23979,-3.63184 -0.87081,1.42602 0.33526,-0.21556 0.69113,-0.40202 1.00579,-0.64668 1.56172,-1.21427 2.57376,-3.04562 2.89753,-4.9746 0.035,-0.39706 0.10158,-0.79259 0.10491,-1.19117 0.0198,-2.3661 -0.76009,-4.72171 -1.55727,-6.91264 -0.66982,-1.31411 -1.37645,-3.23934 -3.11302,-3.25128 -0.99938,0.009 -2.0032,0.0295 -2.98903,0.21225 -1.38333,0.28801 -2.71369,0.75085 -3.92243,1.49789 9.96567,-5.7617 5.04977,-3.11472 2.93652,-1.55735 -0.74703,0.89889 -1.78328,1.50199 -2.56506,2.37556 0,0 -6.34717,2.48347 -6.34717,2.48347 z"
       inkscape:connector-curvature="0" />
    <path
       style="fill:#ff7f2a;fill-opacity:1;stroke:#000000;stroke-width:0.19924888;stroke-miterlimit:4;stroke-dasharray:none;stroke-opacity:1"
       id="path6385"
       d="m 248.03135,144.4861 c -0.0774,2.10982 -0.0725,4.22176 -0.0808,6.33272 -0.0124,2.6695 -0.001,5.33899 -0.001,8.00849 0.0369,3.2769 -0.85493,6.40179 -2.03599,9.42402 -0.552,1.34693 -1.2184,2.64483 -1.76913,3.99222 -0.12402,0.3034 -0.51086,1.18292 -0.34704,1.38135 0.10163,0.12312 0.31757,0.0331 0.47635,0.0496 3.14972,0.27891 6.32827,-0.0713 9.47458,-0.29655 0.62966,-0.0477 3.56744,-0.3279 4.03269,0.3193 0.109,0.15164 0.13098,0.34979 0.19647,0.52468 -0.0953,0.18008 -0.1133,0.43217 -0.28605,0.54023 -2.11857,1.32528 -4.30624,2.54001 -6.51286,3.71285 -0.34889,0.18543 -0.75632,0.2291 -1.13228,0.35059 -0.47198,0.15253 -0.93964,0.31818 -1.41139,0.47141 -1.79433,0.58282 -1.90342,0.60147 -3.78572,1.16038 -4.13639,1.23898 -8.24914,2.61146 -12.12592,4.52578 -2.38353,1.22991 -3.64546,1.90411 3.43423,-2.03127 0.22111,-0.12291 -0.42631,0.273 -0.63099,0.42165 -0.23362,0.16966 -0.36894,0.37128 -0.58828,0.53767 1.05602,0.58389 2.30545,0.87309 3.46661,1.20726 2.21191,0.69356 4.51341,0.999 6.81535,1.19234 2.36799,0.29782 4.72834,0.62868 7.10775,0.8253 2.79291,0.11622 5.58013,0.30441 8.3708,0.46492 2.69309,0.18324 5.40038,0.30875 8.08282,0.61974 1.11119,0.16093 2.23295,0.22256 3.33135,0.45693 0,0 -5.55185,3.86823 -5.55185,3.86823 l 0,0 c -1.06849,-0.19908 -2.15005,-0.31259 -3.22634,-0.46238 -2.65407,-0.3032 -5.32458,-0.48318 -7.99066,-0.63907 -2.80507,-0.1623 -5.61137,-0.28829 -8.41585,-0.45647 -2.39135,-0.21893 -4.77176,-0.52621 -7.15738,-0.79736 -2.32628,-0.25257 -4.6394,-0.63584 -6.89118,-1.28548 -1.01649,-0.28097 -2.84577,-0.65414 -3.66202,-1.36101 -0.1259,-0.10903 -0.20474,-0.26274 -0.30712,-0.39411 -0.0518,-0.159 -0.15289,-0.30978 -0.15547,-0.47699 -0.009,-0.56025 0.79747,-1.10465 1.1758,-1.32795 5.92681,-3.49816 4.57299,-2.79865 7.9147,-4.44364 3.91222,-1.79855 8.00789,-3.15048 12.12408,-4.40077 2.04332,-0.63782 1.92166,-0.58271 3.86759,-1.25328 0.48636,-0.1676 0.97331,-0.33389 1.45502,-0.51443 0.38621,-0.14475 1.49426,-0.68557 1.14816,-0.46123 -1.64834,1.06843 -3.42146,1.93558 -5.07019,3.00342 -0.12751,0.0826 0.30367,-0.01 0.45551,-0.0146 0.0794,0.0639 0.19389,0.1 0.23812,0.19181 0.0281,0.0583 -0.11797,-0.0549 -0.18043,-0.072 -0.14797,-0.0405 -0.2973,-0.0786 -0.44917,-0.10023 -0.99351,-0.14168 -1.99864,-0.045 -2.99428,0.007 -1.66308,0.0959 -3.32589,0.21149 -4.98985,0.29044 -0.91874,0.0436 -2.46079,0.11997 -3.39821,0.0342 -0.4788,-0.0438 -0.94753,-0.16391 -1.42129,-0.24586 -0.2879,-0.22182 -0.67071,-0.35749 -0.8637,-0.66546 -0.27605,-0.44051 0.20327,-1.38377 0.33487,-1.69281 0.57789,-1.35701 1.28922,-2.65423 1.87052,-4.0098 1.21019,-2.93054 2.09598,-5.95539 2.06646,-9.15899 3e-5,-2.66907 0.0111,-5.33813 -10e-4,-8.00719 -0.008,-2.08351 -0.003,-4.16807 -0.0808,-6.25041 0,0 6.07493,-3.09533 6.07493,-3.09533 z"
       inkscape:connector-curvature="0" />
    <path
       style="fill:none;fill-rule:evenodd;stroke:#000000;stroke-width:0.28222221px;stroke-linecap:butt;stroke-linejoin:miter;stroke-opacity:1"
       d="m 13.329874,14.188749 c 1.057202,0.165873 0.238156,2.093423 0.45965,2.757905 0.108341,0.325023 0.392461,0.583352 0.459651,0.919302 0.09015,0.450725 -0.09014,0.928228 0,1.378953 0.06719,0.33595 0.403327,0.581359 0.459651,0.919301 0.0284,0.170391 -0.105144,2.796981 0,3.217556 0.08309,0.332374 0.4112,0.580141 0.459651,0.919302 0.108341,0.758385 0,1.532169 0,2.298254 0,1.838602 0,3.677207 0,5.515808 0,1.378955 0,2.757907 0,4.136859 0,0.45965 0,0.919302 0,1.378952 0,0.306434 0.05038,0.617036 0,0.919302 -0.207711,1.246268 -0.762589,2.423504 -0.919302,3.677206 -0.07602,0.608135 0.08667,1.231897 0,1.838604 -0.06852,0.479645 -0.39113,0.899307 -0.459651,1.378952 -0.08667,0.606707 0,1.225736 0,1.838605 0,0.919299 0,1.838601 0,2.757903 0,2.911122 0,5.822245 0,8.733367 0,13.789524 0,27.579049 0,41.36857 0,4.74973 0,9.49945 0,14.24918 0,1.37895 0,2.7579 0,4.13686 0,0.61286 -0.120193,1.23763 0,1.8386 1.259761,3.77928 -0.161504,-0.96903 0.459651,2.7579 0.07965,0.47792 0.399555,0.89818 0.459651,1.37896 0.09502,0.76016 0,1.53217 0,2.29825 0,0.30643 -0.07432,0.62202 0,0.9193 0.818909,3.27564 0.235056,-2.71606 0.919302,2.75791 0.07602,0.60813 0,1.22573 0,1.8386 0,0.9193 0,1.8386 0,2.7579 0,2.60469 0,5.20938 0,7.81407 0,0.76608 0,1.53217 0,2.29825 0,0.61287 -0.100755,1.23408 0,1.83861 0.05632,0.33794 0.403327,0.58135 0.459651,0.9193 0,6.11883 -0.274083,-0.91077 0.459651,2.7579 0.09708,0.48539 0,2.55282 0,3.21756 0,0.30643 0,0.61287 0,0.9193 0,0.15322 -0.06852,0.32261 0,0.45965 0.0969,0.19381 0.407097,0.24944 0.45965,0.45965 0.111482,0.44593 0,0.9193 0,1.37896 0,0.30643 0,0.61286 0,0.91929 0,1.53217 0,3.06435 0,4.59651 0,1.07252 0,2.14504 0,3.21756 0,0.15659 0.08292,1.58984 0,1.8386 -0.612867,1.8386 -0.441062,-0.0929 -0.919301,2.29826 -0.0601,0.30048 0.137041,0.64522 0,0.9193 -0.06852,0.13704 -0.391131,-0.13704 -0.459651,0 -0.08622,0.17243 0,2.48424 0,2.7579 0,0.15322 0,0.30644 0,0.45965 0,0.15322 0.06852,0.32261 0,0.45966 -0.0969,0.1938 -0.362748,0.26584 -0.459651,0.45965 -0.06987,0.13975 0,1.5212 0,1.8386 0,1.53217 0,3.06434 0,4.59651 0,1.22573 0,2.45147 0,3.6772 0,0.24036 0.06043,1.71775 0,1.83861 -0.193806,0.38761 -0.725496,0.53169 -0.919302,0.9193 -0.06852,0.13704 0.108341,0.35131 0,0.45965 -0.10834,0.10834 -0.35131,-0.10834 -0.459651,0 -0.216681,0.21668 0.216682,0.70262 0,0.9193 -0.10834,0.10834 -0.35131,-0.10834 -0.45965,0 -0.108341,0.10834 0.10834,0.35131 0,0.45965 -0.108341,0.10834 -0.306434,0 -0.459651,0 -0.153217,0 -0.306434,0 -0.459651,0 -0.153217,0 -0.459651,0.15322 -0.459651,0 0,-0.15321 0.306434,0 0.459651,0 0.111478,0 1.36417,-0.0148 1.378952,0 0.108341,0.10834 -0.137041,0.39113 0,0.45965 0.274083,0.13705 0.628593,-0.0969 0.919302,0 0.205562,0.0685 0.254089,0.39113 0.459651,0.45965 0.570862,0.19029 1.693899,-0.15108 2.298254,0 0.332374,0.0831 0.59428,0.35131 0.919302,0.45965 0.599311,0.19977 1.213223,0.37032 1.838603,0.45966 0.455031,0.065 0.919302,0 1.378953,0 0.306433,0 0.622016,-0.0743 0.919301,0 0.332374,0.0831 0.583352,0.39246 0.919302,0.45965 0.450724,0.0901 0.925555,-0.0756 1.378952,0 0.477922,0.0796 0.901031,0.37999 1.378953,0.45965 0.453396,0.0756 0.919301,0 1.378952,0 0.766084,0 1.53217,0 2.298254,0 0.153218,0 0.311009,-0.0372 0.459652,0 2.151315,0.53783 0.853539,0.63693 3.677206,0.9193 0.762283,0.0762 1.536856,-0.0846 2.298254,0 0.627866,0.0698 1.211753,0.38129 1.838602,0.45965 1.064237,0.13303 2.145038,0 3.217556,0 1.378952,0 2.757907,0 4.136859,0 0.459649,0 0.928226,-0.0901 1.378952,0 0.335948,0.0672 0.579343,0.41716 0.919302,0.45965 1.020719,0.12759 3.752387,0 5.056158,0 0.306434,0 0.61882,-0.0601 0.919302,0 0.475104,0.095 0.901031,0.38 1.378952,0.45965 0.453398,0.0756 0.919302,0 1.378952,0 0.459652,0 0.919302,0 1.378954,0 1.532168,0 3.064338,0 4.596508,0 0.766084,0 1.532168,0 2.298254,0 0.306435,0 0.612866,0 0.9193,0 0.153218,0 0.322611,-0.0685 0.459652,0 0.193805,0.0969 0.24944,0.4071 0.45965,0.45965 0.422772,0.10569 2.962255,0 3.677206,0 0.317401,0 1.698854,-0.0699 1.838604,0 0.193805,0.0969 0.247179,0.41716 0.45965,0.45965 0.567027,0.11341 2.849375,0 3.677209,0 2.145035,0 4.290074,0 6.43511,0 2.451472,0 4.902942,0 7.354414,0 0.612868,0 1.225734,0 1.838602,0 0.306434,0 0.612868,0 0.919302,0 0.153218,0 0.314297,-0.0485 0.459653,0 0.325021,0.10834 0.58335,0.39246 0.919299,0.45965 0.450726,0.0902 0.919302,0 1.378955,0 0.919299,0 1.838601,0 2.757903,0 0.306434,0 0.612868,0 0.919303,0 0.153215,0 0.322608,-0.0685 0.459649,0 0.193805,0.0969 0.24944,0.4071 0.459653,0.45965 0.44592,0.11149 0.9193,0 1.37895,0 0.9193,0 1.8386,0 2.75791,0 2.7579,0 5.51581,0 8.27371,0 3.52399,0 7.04798,0 10.57197,0 1.07252,0 2.14504,0 3.21755,0 0.30644,0 0.61287,0 0.91931,0 0.30643,0 0.62859,-0.0969 0.9193,0 0.20556,0.0685 0.24718,0.41716 0.45965,0.45966 0.60096,0.12019 1.23764,-0.1202 1.8386,0 0.21248,0.0425 0.24718,0.41715 0.45965,0.45965 0.90145,0.18029 1.83861,0 2.75791,0 0.30643,0 0.61882,-0.0601 0.9193,0 0.4751,0.095 0.89931,0.39113 1.37895,0.45965 0.60671,0.0867 1.22574,0 1.8386,0 1.22574,0 2.45148,0 3.67721,0 3.52399,0 7.04798,0 10.57197,0 1.22574,0 2.45147,0 3.67721,0 0.30643,0 0.61287,0 0.9193,0 0.30643,0 0.62859,-0.0969 0.9193,0 0.20556,0.0685 0.24592,0.42403 0.45965,0.45965 0.75566,0.12594 1.53217,0 2.29826,0 1.68538,0 3.37077,0 5.05616,0 0.45965,0 0.9193,0 1.37895,0 0.30643,0 0.62202,-0.0743 0.9193,0 0.33237,0.0831 0.58014,0.4112 0.9193,0.45965 1.06174,0.15168 2.14504,0 3.21756,0 2.14503,0 4.29007,0 6.43511,0 12.87022,0 25.74044,0 38.61067,0 7.81406,0 15.62812,0 23.44219,0 0.9193,0 1.8386,0 2.7579,0 0.15322,0 0.35131,-0.10834 0.45965,0 0.10834,0.10834 -0.10834,0.35131 0,0.45965 0.16135,0.16135 1.98076,-0.15875 2.29826,0 0.1938,0.0969 0.25409,0.39113 0.45965,0.45965 0.26148,0.0872 1.86534,0 2.29825,0 1.53217,0 3.06434,0 4.59651,0 0.24036,0 1.71774,-0.0604 1.8386,0 0.19381,0.0969 0.24944,0.4071 0.45965,0.45965 0.42278,0.10569 2.96226,0 3.67721,0 0.15322,0 0.30643,0 0.45965,0 0.15322,0 0.32261,-0.0685 0.45965,0 0.19381,0.0969 0.26585,0.36275 0.45966,0.45965 0.13704,0.0685 0.30643,0 0.45964,0 0.15322,0 0.30644,0 0.45966,0 0.3258,0 2.63906,-0.0594 2.7579,0 0.19381,0.0969 0.26585,0.36275 0.45965,0.45965 0.41113,0.20556 0.96783,-0.20556 1.37896,0 0.13704,0.0685 -0.13705,0.39113 0,0.45965 0.27408,0.13705 0.61286,0 0.91929,0 0.76609,0 1.53218,0 2.29826,0 0.15322,0 0.30643,0 0.45965,0 0.15322,0 0.32261,-0.0685 0.45965,0 0.19381,0.0969 0.25409,0.39113 0.45965,0.45965 0.3127,0.10424 2.05453,-0.12186 2.29826,0 0.1938,0.0969 0.25409,0.39113 0.45965,0.45965 0.24711,0.0824 1.44944,0 1.8386,0 1.37895,0 2.75791,0 4.13686,0 1.22573,0 2.45147,0 3.67722,0 0.15319,0 0.35131,0.10835 0.45962,0 0.10835,-0.10834 -0.10831,-0.35131 0,-0.45965 0.11061,-0.1106 1.72802,0.11061 1.83863,0 0.21666,-0.21668 -0.21669,-0.70262 0,-0.9193 0.10834,-0.10834 0.35131,0.10834 0.45965,0 0.0209,-0.0208 0,-2.08153 0,-2.29825 0,-1.22574 0,-2.45147 0,-3.67721 0,-0.207 0.0699,-1.23906 0,-1.37895 -0.0969,-0.19381 -0.39113,-0.25409 -0.45965,-0.45965 -0.19381,-0.58142 0.1938,-1.25719 0,-1.8386 -0.0685,-0.20557 -0.30644,-0.30644 -0.45966,-0.45966 -0.15322,-0.45965 -0.39113,-0.8993 -0.45965,-1.37895 -0.0867,-0.60671 0,-1.22573 0,-1.8386 0,-0.30643 0.0743,-0.62202 0,-0.9193 -0.0831,-0.33238 -0.33241,-0.60121 -0.45966,-0.9193 -0.61603,-1.54007 -0.51085,-1.83915 -0.91928,-3.67721 -0.13705,-0.61669 -0.38989,-1.21074 -0.45966,-1.8386 -0.0846,-0.7614 0.10835,-1.53987 0,-2.29826 -0.0485,-0.33916 -0.30643,-0.61287 -0.45965,-0.9193 -0.15322,-0.76608 -0.37338,-1.52178 -0.45966,-2.29825 -0.0677,-0.60912 0,-1.22574 0,-1.83861 0,-0.76608 0,-1.53217 0,-2.29825 0,-0.45965 0.0902,-0.92823 0,-1.37896 -0.0672,-0.33594 -0.4112,-0.58013 -0.45965,-0.91929 -0.12346,-0.86421 0,-3.49942 0,-4.59651 0,-2.75791 0,-5.51581 0,-8.27372 0,-1.07252 0,-2.14504 0,-3.21755 0,-0.30644 0.0743,-0.62202 0,-0.91931 -0.9426,-3.77041 -0.007,3.62839 -0.9193,-2.7579 -0.10834,-0.75839 0,-1.53217 0,-2.29826 0,-0.30643 0.0743,-0.62201 0,-0.9193 -0.59171,-2.36685 -0.47098,0.84 -0.9193,-2.29825 -0.0867,-0.60671 0,-1.22574 0,-1.8386 0,-0.15322 0.0685,-0.32261 0,-0.45965 -0.94029,-1.88058 -0.30816,2.59088 -0.9193,-2.29826 -0.076,-0.60813 0.10075,-1.23407 0,-1.8386 -0.0563,-0.33794 -0.30644,-0.61287 -0.45965,-0.9193 -0.15322,-0.61287 -0.37032,-1.21323 -0.45965,-1.83861 -0.13002,-0.91006 0.18028,-1.85645 0,-2.7579 -0.0672,-0.33595 -0.35131,-0.59428 -0.45966,-0.9193 -0.19977,-0.59931 -0.33575,-1.21914 -0.45965,-1.83861 -0.18277,-0.91388 -0.27687,-1.84402 -0.45965,-2.7579 -0.24778,-1.23892 -0.64522,-2.44384 -0.9193,-3.67721 -0.16948,-0.76265 -0.29017,-1.5356 -0.45965,-2.29825 -0.27408,-1.23338 -0.61287,-2.45147 -0.9193,-3.67721 -0.15322,-0.61287 -0.37031,-1.21322 -0.45965,-1.8386 -0.065,-0.45503 0,-0.9193 0,-1.37895 0,-0.91931 0,-1.83861 0,-2.75791 0,-0.30643 0.0743,-0.62202 0,-0.9193 -0.0831,-0.33238 -0.39246,-0.58335 -0.45965,-0.9193 -0.0312,-0.15609 0.11312,-1.95889 0,-2.29826 -0.10834,-0.32502 -0.39246,-0.58335 -0.45965,-0.9193 -0.1202,-0.60097 0,-1.22573 0,-1.8386 0,-1.37896 0,-2.75791 0,-4.136859 0,-1.685386 0,-3.370772 0,-5.056158 0,-0.459652 0,-0.919302 0,-1.378955 0,-0.459649 0.0901,-0.928226 0,-1.378951 -0.0672,-0.335949 -0.40333,-0.581358 -0.45965,-0.919303 -0.10076,-0.604528 0,-1.225733 0,-1.838601 0,-0.766087 0,-1.532171 0,-2.298254 0,-0.612868 0,-1.225737 0,-1.838605 0,-0.306434 0,-0.612868 0,-0.919302 0,-0.153215 0.0685,-0.322608 0,-0.45965 -0.0969,-0.193804 -0.41716,-0.247175 -0.45966,-0.459649 -0.12019,-0.600967 0,-1.225736 0,-1.838605 0,-0.766083 0,-1.53217 0,-2.298254 0,-1.53217 0,-3.064338 0,-4.596508 0,-0.256557 0.0701,-2.087843 0,-2.298254 -0.0685,-0.205562 -0.39113,-0.25409 -0.45965,-0.45965 -0.0777,-0.232966 0,-2.841797 0,-3.217556 0,-0.153218 0,-0.306434 0,-0.459652 0,-0.153216 0.0685,-0.322609 0,-0.45965 -0.0969,-0.193805 -0.39113,-0.25409 -0.45965,-0.45965 -0.24353,-0.730608 0.24354,-1.107999 0,-1.838604 -0.0685,-0.205562 -0.36275,-0.265845 -0.45965,-0.45965 -0.0732,-0.146479 0,-1.887454 0,-2.298254 0,-2.298257 0,-4.596511 0,-6.894765 0,-4.136856 0,-8.273714 0,-12.41057 0,-1.225736 0,-2.451472 0,-3.677208 0,-0.370033 -0.0962,-1.5501 0,-1.838602 0.10834,-0.325024 0.35131,-0.594281 0.45965,-0.919302 0.0935,-0.28043 0,-2.402902 0,-2.757904 0,-2.145038 0,-4.290074 0,-6.435112 0,-3.677207 0,-7.354413 0,-11.03162 0,-0.168801 0.0185,-1.820106 0,-1.838604 -0.10834,-0.10834 -0.30643,0 -0.45965,0 -0.3258,0 -2.63906,-0.05942 -2.7579,0 -0.19381,0.0969 -0.25409,0.391131 -0.45966,0.459651 -0.49607,0.165358 -2.36741,-0.195244 -2.7579,0 -0.13704,0.06852 0.13704,0.39113 0,0.459651 -0.27408,0.137042 -0.61287,0 -0.9193,0 -0.76608,0 -1.53217,0 -2.29826,0 -0.45964,0 -0.94289,-0.145354 -1.37895,0 -0.20556,0.06852 -0.30643,0.306434 -0.45965,0.459651 -0.61286,0 -1.24403,-0.148642 -1.8386,0 -0.14864,0.03716 0.14535,0.411199 0,0.459651 -0.43607,0.145354 -0.9193,0 -1.37895,0 -0.7308,0 -2.15453,-0.120675 -2.75791,0 -0.33595,0.06719 -0.61287,0.306434 -0.9193,0.459651 -0.61287,0 -1.23407,-0.100755 -1.8386,0 -0.33794,0.05632 -0.58136,0.403327 -0.91931,0.45965 -0.60452,0.100755 -1.22573,0 -1.8386,0 -1.07252,0 -2.14504,0 -3.21755,0 -3.52399,0 -7.04798,0 -10.57197,0 -4.13686,0 -8.27372,0 -12.41057,0 -1.37896,0 -2.75791,0 -4.13686,0 -0.30644,0 -0.61287,0 -0.9193,0 -0.15322,0 -0.3143,-0.04845 -0.45965,0 -0.32503,0.108341 -0.58137,0.403328 -0.91931,0.459651 -0.71697,0.119496 -2.75831,0 -3.6772,0 -2.45148,0 -4.90294,0 -7.35442,0 -7.50763,0 -15.01526,0 -22.52289,0 -9.49945,0 -18.9989,0 -28.49835,0 -2.91112,0 -5.82224,0 -8.73336,0 -0.91931,0 -1.83861,0 -2.75791,0 -0.30643,0 -0.61287,0 -0.9193,0 -0.15322,0 -0.3143,-0.04845 -0.45965,0 -0.32502,0.108341 -0.58136,0.403327 -0.9193,0.459651 -0.75566,0.125944 -1.53217,0 -2.29826,0 -1.53217,0 -3.06434,0 -4.5965,0 -4.29008,0 -8.58015,0 -12.87023,0 -11.33805,0 -22.676105,0 -34.014157,0 -3.677209,0 -7.354415,0 -11.031621,0 -1.072517,0 -2.145035,0 -3.217556,0 -0.306434,0 -0.612868,0 -0.919302,0 -0.306431,0 -0.622015,0.07432 -0.919299,0 -0.332376,-0.08309 -0.581361,-0.403327 -0.919303,-0.459651 -0.604528,-0.100755 -1.225736,0 -1.838604,0 -1.072518,0 -2.145036,0 -3.217556,0 -3.217554,0 -6.43511,0 -9.652666,0 -1.225736,0 -2.45147,0 -3.677206,0 -0.459653,0 -0.94289,0.145355 -1.378952,0 -0.205562,-0.06852 -0.249439,-0.407097 -0.459653,-0.459651 -0.405801,-0.10145 -2.121724,0 -2.757903,0 -0.306434,0 -0.612868,0 -0.919302,0 -0.153219,0 -0.322609,0.06852 -0.45965,0 -0.193808,-0.0969 -0.25409,-0.39113 -0.459653,-0.45965 -0.21041,-0.07014 -2.041697,0 -2.298254,0 -0.919302,0 -1.838601,0 -2.757903,0 -0.207008,0 -1.239066,0.06994 -1.378952,0 -0.193808,-0.0969 -0.254091,-0.391131 -0.459653,-0.459651 -0.210238,-0.07008 -1.634069,0.102267 -1.838601,0 -0.193808,-0.0969 -0.254091,-0.39113 -0.459653,-0.459651 -0.436061,-0.145354 -0.919302,0 -1.378952,0 -0.325803,0 -2.639063,0.05942 -2.757904,0 -0.193807,-0.0969 -0.249439,-0.407098 -0.459652,-0.459651 -0.445925,-0.111482 -0.919302,0 -1.378952,0 -0.153218,0 -0.32261,0.06852 -0.459651,0 -0.193806,-0.0969 -0.265845,-0.362748 -0.459651,-0.459651 -0.249355,-0.124677 -1.712832,0.125771 -1.838603,0 -0.108341,-0.10834 0.10834,-0.35131 0,-0.459651 -0.108341,-0.10834 -0.306434,0 -0.459651,0 -0.153217,0 -0.306434,0 -0.459651,0 -1.225735,0 -2.451471,0 -3.677206,0 -2.604688,0 -5.209376,0 -7.814064,0 z"
       id="path6389"
       inkscape:connector-curvature="0" />
    <path
       style="fill:#80b3ff;fill-opacity:1;stroke:#000000;stroke-width:1.14985085;stroke-miterlimit:4;stroke-dasharray:none;stroke-opacity:1"
       d="m 968.44777,716.10385 c -0.89578,-0.39566 -7.12549,-1.45215 -13.84382,-2.34777 -6.71832,-0.89561 -17.88189,-2.40292 -24.80793,-3.34958 -30.00608,-4.10127 -70.93251,-5.39267 -208.90822,-6.59187 -159.83122,-1.38915 -253.11193,-3.49351 -256.67839,-5.79054 -1.25531,-0.8085 -28.66705,-1.98897 -60.915,-2.62329 -69.87619,-1.37446 -144.10824,-3.74744 -188.92734,-6.03944 -82.43996,-4.21586 -97.12741,-5.18692 -101.05814,-6.68138 -2.31222,-0.87912 -6.96858,-1.59838 -10.34748,-1.59838 -10.25128,0 -49.763875,-6.71596 -51.86309,-8.81517 -0.597037,-0.59704 0.11041,-3.43854 1.572104,-6.31445 1.992877,-3.92101 2.872282,-11.74703 3.515804,-31.28787 0.471997,-14.33242 1.745975,-28.99058 2.831062,-32.57368 2.877959,-9.50342 3.568534,-39.2987 1.352793,-58.36717 -1.057849,-9.10377 -2.529187,-32.67627 -3.269639,-52.38334 C 56.360032,471.63284 54.872331,451.47787 53.794481,446.55111 50.972052,433.64999 49.808368,167.3327 52.503532,151.10842 55.317337,134.16996 56.093612,95.223318 53.943773,78.849833 52.916504,71.026012 51.667566,61.509845 51.168354,57.702797 l -0.907658,-6.921908 19.659903,0 c 11.560119,0 20.081373,0.681956 20.682903,1.655251 0.562652,0.910388 1.657591,1.263054 2.4332,0.783701 0.775609,-0.479353 4.939186,-0.03301 9.252398,0.991884 4.3132,1.024888 10.25375,1.746632 13.20122,1.603874 2.94746,-0.142757 6.20854,0.265468 7.24683,0.907169 2.20089,1.360221 4.0846,1.546126 28.63994,2.826482 10.14431,0.528942 18.96687,1.284733 19.60567,1.679535 4.59734,2.841309 245.08611,2.783752 651.69779,-0.155974 35.44772,-0.25628 65.09578,-1.192764 70.6563,-2.231797 5.26935,-0.984627 11.38595,-1.337129 13.59243,-0.783337 2.29232,0.575337 5.07348,0.125762 6.4889,-1.048937 1.36243,-1.130707 6.97235,-2.183291 12.46652,-2.339076 5.49417,-0.155786 11.08875,-0.666545 12.43241,-1.135022 1.34367,-0.468477 3.54239,-0.914241 4.88606,-0.990587 1.34366,-0.07635 5.26449,-0.593005 8.71295,-1.148131 l 6.26993,-1.009321 -1.13839,86.924567 c -0.80545,61.5011 -0.6115,89.19274 0.66307,94.67958 1.70212,7.32729 3.01019,29.37312 6.83592,115.21063 2.09243,46.94765 3.35049,59.38903 7.82281,77.36249 4.32569,17.3842 7.79441,33.7878 9.98769,47.23184 2.04501,12.53515 4.20509,23.95178 6.47124,34.20236 3.95247,17.87844 5.00841,29.39604 6.40445,69.85682 1.42111,41.18666 2.62727,52.67789 7.79686,74.28172 1.3932,5.82254 3.0993,13.88453 3.7912,17.91552 0.6919,4.03099 2.0346,10.26071 2.9837,13.84382 2.1485,8.11151 2.2827,28.47907 0.2091,31.75929 -1.207,1.90938 -5.7371,2.52214 -20.74078,2.80547 -10.55806,0.19938 -19.92938,0.0388 -20.82515,-0.35686 z M 955.7746,675.8297 c 6.30273,-4.27406 9.39106,-7.28483 8.15243,-7.94767 -2.52757,-1.35264 -16.29505,-2.6827 -49.22583,-4.75569 -40.93559,-2.57689 -77.3625,-7.91376 -77.3625,-11.33429 0,-0.75887 11.90976,-5.19016 26.46612,-9.84732 23.69901,-7.58227 39.85813,-14.69218 49.20621,-21.65045 2.71682,-2.02227 2.87042,-2.77103 1.02472,-4.99498 -1.89055,-2.27796 -5.23394,-2.47693 -25.86644,-1.53943 -22.92148,1.04151 -23.6517,0.97493 -22.36209,-2.03902 0.73324,-1.71363 3.94954,-9.71186 7.14735,-17.77384 l 5.81421,-14.65816 0.59899,-34.70108 0.59902,-34.7011 -11.54195,5.81243 -11.54193,5.81242 0,28.95365 c 0,32.14239 -1.28625,39.57101 -10.55494,60.95926 -3.05853,7.05778 -5.18227,13.81916 -4.71941,15.0253 1.05615,2.75231 5.86924,4.07239 15.27435,4.18927 l 7.32908,0.091 -8.95776,3.74604 c -11.96334,5.00294 -24.8276,11.53983 -36.32882,18.4603 -7.41234,4.4601 -9.34798,6.44402 -8.95777,9.1811 1.11142,7.79577 33.48633,13.83768 93.33277,17.41806 17.01975,1.01824 31.25037,2.14908 31.62362,2.51301 2.67449,2.60775 11.88574,-0.13957 20.85057,-6.2189 l 0,5e-5 z M 711.11569,663.18149 c 6.16465,-2.34809 12.21583,-7.94345 12.21285,-11.29292 -0.002,-2.19902 -3.09051,-2.58813 -21.58006,-2.7188 -22.83623,-0.1614 -29.91849,-1.4248 -46.61621,-8.31603 l -10.38027,-4.28397 5.57235,-2.85878 c 5.12193,-2.62772 6.48631,-2.6672 16.88004,-0.48849 22.24868,4.66372 41.1037,6.88119 47.06945,5.5357 8.68488,-1.95876 13.94304,-5.962 13.94304,-10.61534 0,-4.44357 -1.16313,-4.88214 -17.10119,-6.44808 -5.37465,-0.52806 -14.30336,-1.74039 -19.84155,-2.69405 l -10.06946,-1.73393 9.66229,-9.45454 c 10.26183,-10.0412 11.71974,-14.27473 7.15845,-20.7869 -3.75462,-5.36047 -14.03991,-7.6802 -56.32841,-12.70425 l -38.47367,-4.57084 -9.9322,7.21232 c -5.46271,3.96677 -9.95356,7.762 -9.97967,8.43383 -0.026,0.67183 2.45419,1.22151 5.51178,1.22151 3.05759,0 18.26543,1.48194 33.79519,3.29322 46.38475,5.40993 53.48055,7.19896 53.48055,13.48376 0,2.10546 -1.67774,5.40426 -3.72832,7.33067 l -3.7283,3.50257 -13.47604,-3.21866 c -19.27548,-4.60381 -21.9159,-4.3071 -32.95336,3.70324 -5.24573,3.80705 -9.55908,7.47159 -9.58518,8.14342 -0.0261,0.67183 2.70092,1.2535 6.06009,1.29257 3.35916,0.0391 10.43054,0.97032 15.71421,2.06941 l 9.60664,1.99833 -8.7923,2.79805 c -21.03688,6.69473 -25.47436,14.62025 -11.6425,20.79401 14.13333,6.3083 31.23926,11.43013 43.1748,12.92735 14.35162,1.8003 37.70789,0.98202 44.36696,-1.55438 z m -121.24158,-7.5913 c 9.04468,-8.46025 9.10086,-7.48116 -1.22519,-21.35561 -3.71645,-4.99357 -4.16934,-5.16622 -7.47594,-2.8502 -1.9359,1.35596 -4.63932,2.44825 -6.00763,2.42731 -1.36829,-0.021 -9.45042,-6.32954 -17.9603,-14.01909 -8.50987,-7.68956 -19.67184,-17.52264 -24.8044,-21.85129 l -9.3319,-7.87029 9.81925,-5.96489 c 5.40059,-3.28068 9.555,-6.80603 9.23202,-7.8341 -1.07966,-3.43658 -16.16694,-12.45392 -25.25998,-15.09734 -29.46797,-8.56656 -50.86129,11.83791 -50.86129,48.51041 0,7.01427 0.99071,11.64009 3.41787,15.95862 3.23087,5.74856 3.74326,6.0192 9.36494,4.94643 12.37749,-2.36192 27.93429,-11.96506 27.93429,-17.24371 0,-4.45284 3.80643,-2.15895 19.83424,11.95274 32.45137,28.5718 45.05921,37.8669 51.36252,37.8669 2.34954,0 7.03445,-2.96722 11.9615,-7.57589 z m 190.46065,0.057 c 10.63223,-3.40004 29.05123,-15.20708 34.79628,-22.30528 4.10805,-5.07565 5.07399,-7.92112 5.62466,-16.56925 0.80567,-12.65266 -4.12521,-30.67436 -10.44903,-38.18978 -3.78262,-4.49539 -5.12376,-4.99283 -13.42267,-4.97851 -6.32682,0.0114 -11.89537,1.26142 -17.7452,3.98493 -13.18237,6.13737 -29.88929,16.53294 -37.07811,23.07118 -6.11498,5.56156 -6.25244,5.87842 -2.24019,5.16397 4.1449,-0.73809 4.30577,-0.46045 5.30332,9.15319 1.4787,14.25056 8.78496,35.0425 14.22581,40.48333 4.90497,4.90499 6.19346,4.91643 20.98513,0.18622 z M 202.96628,646.562 c 10.00722,-3.30038 31.34614,-15.29559 37.81964,-21.2595 1.9895,-1.83289 4.39463,-5.68792 5.34472,-8.56673 l 1.72745,-5.23422 13.34286,8.77835 c 21.36205,14.05421 41.7265,18.25075 65.05798,13.40661 10.56091,-2.19268 34.10272,-14.64264 38.67193,-20.45145 5.7718,-7.33766 3.59004,-24.81631 -5.27568,-42.26487 -5.27736,-10.38635 -18.96174,-22.96815 -26.52392,-24.38681 -7.12636,-1.33692 -18.71047,0.3952 -28.53098,4.26608 l -7.6795,3.02697 -1.85056,-10.90971 c -4.38028,-25.82334 -13.14106,-53.31823 -26.73246,-83.8974 l -4.20865,-9.46902 -11.0372,6.08036 c -6.07048,3.34419 -11.22526,6.20534 -11.4551,6.35809 -0.22984,0.15277 3.52543,8.64028 8.34505,18.86115 16.51473,35.02256 24.05775,65.28602 24.01552,96.3531 -0.0147,10.77122 0.6381,19.13703 1.49317,19.13703 0.83555,0 6.29695,-2.35602 12.13647,-5.23561 l 10.61728,-5.23562 0,-9.91114 c 0,-5.53709 0.86253,-10.77368 1.95442,-11.86557 3.35113,-3.35113 14.32204,-2.27003 21.87361,2.1555 3.85718,2.26045 9.18611,7.26836 11.84208,11.12867 5.95314,8.65259 11.56172,24.85199 11.56172,33.394 0,7.72201 -1.72246,8.40011 -21.57348,8.49306 -9.5501,0.0446 -16.27319,-0.92069 -23.21533,-3.3336 -21.72962,-7.5527 -48.83518,-31.17868 -42.75093,-37.26293 2.52312,-2.52312 0.64214,-2.35395 -6.3608,0.57206 -3.21585,1.34367 -6.36395,2.44303 -6.99578,2.44303 -0.63183,0 -4.56144,-6.7794 -8.73247,-15.06533 -9.08488,-18.04758 -17.29004,-29.47635 -24.38988,-33.97213 -4.50726,-2.85408 -7.04255,-3.1955 -18.26328,-2.45943 -12.29722,0.8067 -29.78864,5.5929 -40.8124,11.16756 -2.63492,1.33248 -5.5858,2.13605 -6.55753,1.78576 -0.97173,-0.3503 -6.67294,1.45606 -12.66935,4.01413 -8.65804,3.69353 -12.58366,6.63689 -19.06824,14.29703 -8.8044,10.4005 -17.115075,25.51601 -18.713464,34.03616 -1.498411,7.98721 4.55576,20.38904 14.517714,29.73921 10.23479,9.60624 31.839,21.04467 45.49909,24.08967 12.80247,2.85382 34.25756,1.58999 47.57628,-2.80251 z m 197.45458,-26.96322 c 3.22678,-2.46338 8.01072,-5.21179 10.63096,-6.10756 l 4.76408,-1.62869 0.25399,-23.61592 0.254,-23.61591 19.15252,-0.18686 19.15253,-0.18688 8.94227,-5.93733 c 4.91825,-3.26553 8.94227,-6.6488 8.94227,-7.51835 0,-2.76733 -7.32585,-3.56726 -27.13379,-2.96285 -20.05452,0.61194 -23.57764,1.56596 -37.3984,10.12697 l -6.7139,4.15883 -8.75859,-17.3768 c -4.81723,-9.55723 -9.93336,-18.08287 -11.36918,-18.94585 -1.94668,-1.17001 -5.15666,0.003 -12.6223,4.61055 -5.50645,3.39877 -10.01172,6.41714 -10.01172,6.70749 0,0.29033 2.85859,4.95068 6.35241,10.35629 10.24195,15.84629 23.95434,51.63678 27.0084,70.49419 0.54405,3.35916 1.3713,6.10756 1.83836,6.10756 0.46708,0 3.48931,-2.01549 6.71609,-4.47888 z m 129.59893,-75.45944 c 14.77324,-2.22177 38.57851,-8.19723 56.50158,-14.18272 14.11231,-4.71288 34.19311,-17.06505 30.9754,-19.0537 -0.95667,-0.59126 -8.50072,1.14599 -16.76457,3.86055 -18.74081,6.15608 -37.48152,10.7914 -53.15433,13.14718 -10.06786,1.51329 -13.63997,2.95336 -21.53259,8.6807 -8.41531,6.10664 -11.39051,9.30948 -8.64779,9.30948 0.50024,0 6.18027,-0.79268 12.6223,-1.76149 z m 253.59022,-22.0879 11.02235,-4.30517 13.00542,-23.78963 c 19.33303,-35.36415 24.14136,-51.32977 20.0405,-66.54257 -2.4707,-9.16544 -6.12268,-9.0764 -17.67111,0.4309 l -8.93139,7.35282 -3.98964,-5.31697 c -4.80723,-6.40649 -17.16641,-30.66009 -19.8672,-38.98719 l -1.94036,-5.9826 -11.28781,5.9826 c -6.2083,3.29045 -11.30038,6.54426 -11.31572,7.23074 -0.0689,3.07821 15.18813,33.35537 21.88201,43.4244 9.30941,14.00334 13.69166,17.03619 23.08607,15.9773 6.94254,-0.78251 7.06344,-0.71383 6.12165,3.4783 -2.10584,9.37375 -27.69432,58.88312 -31.7187,61.37032 -1.67354,1.03431 -2.02214,3.98193 -0.47092,3.98193 0.55687,0 5.97255,-1.93733 12.03485,-4.30518 z M 670.39859,468.46042 c 2.68733,-1.96136 6.90155,-4.04275 9.36494,-4.62531 3.86121,-0.91316 4.47888,-1.86838 4.47888,-6.92673 0,-6.85083 4.71525,-39.70828 5.9957,-41.78011 0.48012,-0.77683 6.62083,9.09037 13.64601,21.9271 16.4025,29.97137 15.80506,29.03994 18.62677,29.03994 4.30159,0 20.36414,-11.91025 20.36414,-15.09984 0,-1.65436 -0.57952,-2.64975 -1.28782,-2.21201 -1.10299,0.68169 -16.78091,-26.39465 -32.1775,-55.57176 -2.71,-5.13555 -5.6058,-8.55059 -7.25049,-8.55059 -4.75447,0 -22.82868,9.9261 -25.50122,14.00493 -1.40928,2.15082 -3.10911,3.9106 -3.77739,3.9106 -0.66828,0 -2.89986,-6.04649 -4.95903,-13.43665 -2.05918,-7.39015 -4.02823,-13.97287 -4.37566,-14.62825 -0.62561,-1.18014 -17.35949,7.36704 -21.2009,10.82878 -1.55489,1.40122 -0.55053,6.22535 4.55585,21.88252 6.12971,18.7949 11.32953,41.27402 13.71967,59.31096 1.09814,8.28704 1.07055,8.2816 9.77805,1.92642 z m -42.75295,-6.28869 c 3.64981,-2.23586 3.59346,-4.02032 -0.25849,-8.18658 -11.67029,-12.62256 -26.20763,-63.54933 -26.20763,-91.80981 0,-6.00579 -1.45643,-24.84097 -3.23652,-41.85593 -1.7801,-17.01497 -3.24592,-31.42295 -3.25737,-32.01771 -0.0114,-0.59476 -3.50216,0.28769 -7.75709,1.961 -4.25494,1.67333 -9.77439,3.46219 -12.26544,3.97526 -4.33903,0.89368 -4.4939,1.25581 -3.68887,8.62543 0.46217,4.23093 1.60715,15.75459 2.54439,25.60812 0.93726,9.85354 2.0709,20.24479 2.5192,23.09167 0.77823,4.94193 0.35215,5.42096 -9.41599,10.58644 -8.29541,4.38668 -11.22312,7.07564 -15.47432,14.21231 -6.47733,10.87381 -13.4042,31.27881 -14.62125,43.07094 -0.84702,8.20672 -0.60579,9.05444 3.3059,11.61748 3.6331,2.3805 5.07708,2.48371 10.38906,0.74261 5.49746,-1.80187 17.68044,-8.59867 30.01352,-16.7443 l 4.29983,-2.8399 2.78632,12.6923 c 3.58954,16.35114 10.86785,33.91358 17.27691,41.68888 l 5.05708,6.13511 7.57027,-4.40367 c 4.16367,-2.422 8.85288,-5.18934 10.42049,-6.14965 z M 384.86849,429.51965 c 3.91272,-0.79969 4.28432,-1.45714 3.51237,-6.21405 -1.76044,-10.84836 7.66925,-61.98744 13.51425,-73.29042 1.34961,-2.60986 2.21467,-4.98436 1.92236,-5.27668 -0.29232,-0.29232 -5.72305,1.8732 -12.06831,4.81227 -10.19447,4.72198 -11.85213,6.13179 -14.24677,12.11658 -1.49047,3.72506 -2.70995,7.85738 -2.70995,9.18291 0,5.89892 -2.93819,1.12591 -9.30066,-15.10863 -3.77169,-9.62391 -7.61574,-19.55146 -8.54234,-22.06121 l -1.68471,-4.56321 -11.00185,6.06059 c -6.05104,3.33333 -11.26898,6.26464 -11.59545,6.51402 -0.32646,0.24937 3.79506,10.56917 9.15895,22.93286 10.46887,24.1307 21.56528,56.56441 21.56528,63.03325 0,8.3615 1.11235,9.03755 9.46861,5.75463 4.19792,-1.64922 9.60161,-3.40103 12.00822,-3.89291 z m 102.79498,3.22671 c 12.18323,-2.58153 33.35395,-13.36522 40.85292,-20.80917 4.63388,-4.59989 4.68681,-4.86214 3.7989,-18.82068 -1.49083,-23.43654 -12.46396,-47.60062 -26.46551,-58.28013 -7.78057,-5.93453 -22.74416,-7.20069 -38.22564,-3.23454 -13.81392,3.53897 -39.80316,19.25605 -45.43766,27.47858 -2.32864,3.39824 -7.04144,9.26151 -10.47284,13.02947 -12.77394,14.02678 -15.64575,26.14323 -8.81806,37.20416 13.02654,21.10307 48.92637,31.02683 84.76789,23.43231 z M 264.09193,422.35207 c 16.9531,-8.06759 25.40347,-19.81648 30.0582,-41.79107 2.48286,-11.72148 3.41517,-43.83435 1.24397,-42.84858 -0.67183,0.30502 -5.80219,2.94183 -11.40079,5.85957 l -10.17928,5.30496 -0.0322,11.78453 c -0.045,16.42295 -2.62798,32.59417 -6.72893,42.12708 -3.31782,7.7125 -3.71371,8.03899 -8.53824,7.04188 -7.59864,-1.57046 -16.65483,-8.41076 -22.18097,-16.75371 -10.24885,-15.47295 -20.47396,-58.3005 -18.82835,-78.86197 l 1.01068,-12.62806 -12.25373,6.06331 -12.25373,6.0633 0,15.04528 c 0,24.57352 12.01316,66.82215 23.18215,81.52842 12.16001,16.01115 29.32836,20.4276 46.90126,12.06506 z m 546.0312,-60.70648 c 14.6943,-7.43885 24.46267,-15.37567 42.00661,-34.13047 10.02903,-10.72121 17.84587,-19.88182 17.37078,-20.35692 -0.4751,-0.47509 -5.52391,1.08558 -11.21959,3.46818 -8.95814,3.74734 -13.15744,7.22217 -31.11468,25.74673 -11.4174,11.77809 -20.76197,21.875 -20.76572,22.43758 -0.003,0.56256 -1.65586,2.17317 -3.67136,3.57911 -5.38897,3.75915 -0.53709,3.27082 7.39396,-0.74421 z M 652.59372,317.07073 c 4.10736,-3.13522 8.53515,-5.7004 9.83955,-5.7004 2.69181,0 15.07611,-25.48771 20.9712,-43.16012 2.34076,-7.01721 4.01576,-16.46085 4.35633,-24.56095 l 0.55332,-13.16016 -8.73333,3.99827 c -7.72705,3.5376 -9.45515,3.78202 -14.99797,2.12135 -12.3571,-3.70228 -28.17742,-19.73553 -41.04222,-41.5946 l -4.51218,-7.66686 -10.96031,6.06132 c -6.02817,3.33372 -11.21968,6.27405 -11.53671,6.53407 -1.49962,1.22995 19.0054,29.94599 27.18154,38.06614 13.48566,13.39328 26.20873,18.1742 37.57256,14.11858 l 3.91639,-1.39772 -1.04567,10.00442 c -1.03716,9.92294 -7.93211,28.67551 -17.54563,47.71979 -4.27132,8.46144 -5.22682,14.31726 -2.33615,14.31726 0.46824,0 4.21194,-2.56518 8.31928,-5.70039 z M 276.25706,306.5271 c 9.85354,-1.79089 27.1566,-5.70875 38.45126,-8.70639 18.02846,-4.78482 21.76907,-6.3993 30.63744,-13.22334 5.55593,-4.2752 9.75633,-8.11843 9.33423,-8.54056 -0.42211,-0.4221 -8.34569,1.40079 -17.60797,4.05087 -18.49297,5.29112 -35.03525,8.96839 -52.95713,11.77216 -9.95896,1.55801 -13.08861,2.91378 -21.17289,9.17205 -9.94869,7.70155 -12.8123,11.33414 -7.64335,9.69581 1.67359,-0.53046 11.10487,-2.42973 20.95841,-4.2206 z m 235.00347,-59.12641 c 1.91608,-2.03959 5.73935,-9.17812 8.49616,-15.86343 7.89387,-19.14285 8.49004,-19.76458 18.40257,-19.19144 l 8.45935,0.48913 8.55116,12.74624 c 4.99724,7.44881 8.97589,15.40229 9.57309,19.13704 0.56206,3.51493 1.41134,6.39079 1.88729,6.39079 0.47595,0 4.96294,-3.10609 9.97111,-6.90242 5.00817,-3.79635 9.75683,-6.69419 10.55256,-6.43964 0.79574,0.25453 1.00919,-2.23394 0.47432,-5.52994 -1.09085,-6.7221 -8.93928,-20.54498 -17.11335,-30.14055 -5.12485,-6.01606 -5.92344,-6.36221 -14.65816,-6.35362 -12.06791,0.0119 -18.71112,1.9721 -30.268,8.93129 -5.22242,3.14478 -9.77298,5.71778 -10.11233,5.71778 -0.33937,0 -0.62257,-3.11486 -0.62933,-6.9219 -0.0114,-6.13603 -1.30158,-16.55829 -4.14036,-33.43356 l -0.89809,-5.33877 -11.49914,6.04264 -11.49916,6.04263 1.12438,7.43955 c 2.92748,19.37008 3.98575,31.54448 4.05158,46.6094 0.0458,10.46996 0.77579,17.07255 2.02593,18.32269 3.37931,3.37931 13.38152,2.36223 17.24842,-1.75391 z m -79.92115,-21.08848 c 5.5811,-3.7847 9.61617,-7.33429 8.96678,-7.88794 -0.64939,-0.55367 -13.09045,-3.43812 -27.64681,-6.40991 -14.55637,-2.97178 -26.46612,-5.86538 -26.46612,-6.43023 0,-0.56485 8.24521,-2.62374 18.3227,-4.57531 15.72227,-3.04471 18.90057,-4.20064 22.3944,-8.1447 5.43388,-6.1341 12.3246,-10.32808 15.17312,-9.235 1.39666,0.53595 2.64278,-0.36794 3.14269,-2.27959 0.74151,-2.83555 0.12362,-3.09391 -5.89353,-2.46419 -30.53924,3.19608 -50.0177,7.51524 -64.6866,14.34362 -7.35278,3.42272 -15.7403,5.34311 -16.27508,3.72632 -0.0741,-0.22394 -0.71182,-17.47426 -1.41719,-38.33402 -0.70538,-20.85977 -1.71637,-38.36071 -2.24663,-38.89098 -0.53026,-0.53026 -5.74476,1.51221 -11.58777,4.53884 l -10.62364,5.50294 0.92232,31.75934 c 1.25823,43.32578 2.88522,59.92984 6.19688,63.24151 1.85714,1.85714 3.32703,2.17964 4.849,1.06391 10.40679,-7.6291 7.36907,-7.63094 40.91499,0.0248 17.01975,3.88414 32.0403,7.12281 33.379,7.19703 1.33871,0.0743 7.00038,-2.96165 12.58149,-6.74636 l 0,-3e-5 z m -128.41586,-7.3697 10.79327,-7.73624 -26.87328,-1.00374 c -21.63508,-0.80807 -28.93683,-1.70812 -37.45974,-4.61744 -19.72035,-6.73159 -26.05894,-12.54164 -26.05894,-23.88601 l 0,-6.79517 6.10757,1.4084 c 3.35916,0.77463 16.76907,1.90278 29.79982,2.50701 25.65923,1.1898 31.58475,0.23247 42.67661,-6.89485 12.23165,-7.8597 6.721,-15.04678 -22.3944,-29.20719 -16.50201,-8.02582 -31.50535,-12.07124 -44.90075,-12.1068 -7.67065,-0.0204 -10.68544,0.95013 -19.54421,6.29149 -15.99719,9.64544 -16.62096,11.35177 -15.23415,41.67341 1.11471,24.37225 1.31858,25.4904 5.40206,29.62831 6.15325,6.23525 22.81754,13.57591 36.41611,16.04136 6.4911,1.17686 20.50381,2.20588 31.13938,2.28672 l 19.33738,0.14691 10.79327,-7.73625 0,8e-5 z m -158.58986,-22.03302 9.7721,-5.24743 -0.004,-8.95777 c -0.002,-4.92676 -0.55928,-13.77696 -1.23774,-19.6671 l -1.23356,-10.70933 13.45287,-1.95276 c 13.61264,-1.97595 36.09614,-11.534 43.61986,-18.54341 5.67708,-5.289 3.09019,-16.12391 -6.22737,-26.08271 -3.81546,-4.07806 -5.23307,-4.47889 -15.84037,-4.47889 -14.72558,0 -32.87477,4.61178 -50.31821,12.78605 -13.09669,6.13732 -34.99048,21.70021 -31.97725,22.73059 0.80408,0.27496 5.2574,-1.42336 9.89625,-3.77404 4.63884,-2.35069 8.85116,-3.85707 9.36071,-3.34753 1.2046,1.20461 6.15709,38.33715 7.6808,57.58887 0.65273,8.24696 1.65865,14.97387 2.23538,14.94868 0.57674,-0.0252 5.44606,-2.40714 10.82072,-5.29322 z m 522.04622,-10.41592 c 8.98579,-3.89702 12.06177,-6.67555 29.29941,-26.46611 10.59278,-12.16159 18.70369,-22.31592 18.02425,-22.56518 -0.67944,-0.24926 -6.0194,1.58768 -11.86657,4.08209 -9.69105,4.13421 -12.30746,6.44302 -29.58539,26.1072 -10.4248,11.86455 -18.95417,21.93736 -18.95417,22.38403 0,1.60839 3.21152,0.73888 13.08247,-3.54203 z"
       id="path6393"
       inkscape:connector-curvature="0"
       transform="scale(0.28222222,0.28222222)" />
    <path
       style="fill:#80b3ff;fill-opacity:1;stroke:#000000;stroke-width:1.14985085;stroke-miterlimit:4;stroke-dasharray:none;stroke-opacity:1"
       d="m 172.10566,633.75572 c -8.65976,-2.17878 -27.79381,-11.51494 -36.40093,-17.76126 -9.70758,-7.04495 -16.61568,-18.36559 -16.61568,-27.22892 0,-6.88402 0.13985,-7.05737 9.50909,-11.78694 8.14411,-4.11114 9.9034,-5.83268 12.25611,-11.99318 4.95663,-12.97875 12.45772,-16.97732 34.8936,-18.60055 l 13.49866,-0.97662 7.67423,8.04789 c 14.62842,15.34067 25.71027,39.24358 27.45588,59.22074 0.99629,11.40175 -2.90861,18.52374 -11.06286,20.17713 -9.90032,2.00742 -34.65995,2.5492 -41.2081,0.90171 z"
       id="path6395"
       inkscape:connector-curvature="0"
       transform="scale(0.28222222,0.28222222)" />
    <path
       style="fill:#80b3ff;fill-opacity:1;stroke:#000000;stroke-width:1.14985085;stroke-miterlimit:4;stroke-dasharray:none;stroke-opacity:1"
       d="m 461.54048,418.02615 c -15.30223,-3.32453 -29.35207,-11.46086 -34.90172,-20.21175 -6.90363,-10.88589 -5.75286,-17.33277 3.98439,-22.32145 6.11021,-3.13044 7.62877,-5.04655 7.66303,-9.6692 0.0137,-1.85067 2.72483,-5.75516 6.02469,-8.67663 4.5456,-4.02438 5.46889,-5.63986 3.80945,-6.66545 -3.23221,-1.99761 8.56637,-4.8889 19.99516,-4.89989 5.1952,-0.005 11.49935,1.05284 14.00922,2.35074 12.67118,6.55253 23.84855,27.51163 26.69405,50.05503 1.53355,12.14956 1.44771,14.75401 -0.55004,16.68717 -1.31466,1.27215 -8.88475,3.07269 -17.02536,4.04946 -17.399,2.08767 -16.81792,2.10133 -29.70287,-0.69803 z"
       id="path6397"
       inkscape:connector-curvature="0"
       transform="scale(0.28222222,0.28222222)" />
    <path
       style="fill:#80b3ff;fill-opacity:1;stroke:#000000;stroke-width:1.14985085;stroke-miterlimit:4;stroke-dasharray:none;stroke-opacity:1"
       d="m 149.42782,135.04967 c -0.53789,-2.00691 -0.98798,-6.35242 -1.00022,-9.65669 -0.0216,-5.82599 0.1872,-6.0388 6.89967,-7.03333 3.80705,-0.56406 10.92819,-0.79219 15.82475,-0.50697 8.05713,0.46933 9.25617,1.0443 12.6223,6.05267 2.04571,3.04375 3.71946,6.41878 3.71946,7.50008 0,1.25125 -5.47714,2.68538 -15.06533,3.9447 -8.28593,1.08828 -16.63072,2.28689 -18.54399,2.66357 -2.54077,0.50023 -3.74234,-0.29892 -4.45664,-2.96403 z"
       id="path6399"
       inkscape:connector-curvature="0"
       transform="scale(0.28222222,0.28222222)" />
    <path
       style="fill:#80b3ff;fill-opacity:1;stroke:#000000;stroke-width:1.14985085;stroke-miterlimit:4;stroke-dasharray:none;stroke-opacity:1"
       d="m 235.94713,157.87552 c -13.12469,-3.11312 -14.25098,-3.69608 -14.25098,-7.3762 0,-3.84196 0.29808,-3.95182 7.73625,-2.85107 9.15713,1.35512 21.48406,5.51129 30.53782,10.29617 l 6.51474,3.44302 -8.14342,-0.0658 c -4.47888,-0.0362 -14.55637,-1.58695 -22.39441,-3.44609 z"
       id="path6401"
       inkscape:connector-curvature="0"
       transform="scale(0.28222222,0.28222222)" />
    <path
       style="fill:#80b3ff;fill-opacity:1;stroke:#000000;stroke-width:1.14985085;stroke-miterlimit:4;stroke-dasharray:none;stroke-opacity:1"
       d="m 776.07589,633.08421 c -2.2941,-5.01097 -5.31435,-14.91389 -6.71167,-22.0065 -2.3588,-11.97296 -2.34186,-13.19894 0.23679,-17.13445 2.43789,-3.7207 3.71152,-4.17859 10.4201,-3.74621 7.52871,0.48524 7.7123,0.63173 12.30607,9.81901 6.08335,12.16637 7.43335,27.2425 3.17549,35.46239 -2.4744,4.77688 -3.94937,5.78271 -9.10424,6.2085 -6.0287,0.49796 -6.2347,0.32628 -10.32254,-8.60274 z"
       id="path6403"
       inkscape:connector-curvature="0"
       transform="scale(0.28222222,0.28222222)" />
    <path
       style="fill:#80b3ff;fill-opacity:1;stroke:#000000;stroke-width:1.14985085;stroke-miterlimit:4;stroke-dasharray:none;stroke-opacity:1"
       d="m 489.49468,591.4611 c 0.51388,-2.66374 1.35902,-7.04189 1.87808,-9.72922 1.12034,-5.80033 5.05462,-6.32627 13.5328,-1.80912 l 5.5188,2.9404 -5.26431,1.05287 c -2.89537,0.57907 -7.81478,3.60332 -10.93201,6.72055 l -5.66769,5.6677 0.93433,-4.84318 z"
       id="path6405"
       inkscape:connector-curvature="0"
       transform="scale(0.28222222,0.28222222)" />
    <path
       style="fill:#80b3ff;fill-opacity:1;stroke:#000000;stroke-width:1.14985085;stroke-miterlimit:4;stroke-dasharray:none;stroke-opacity:1"
       d="m 559.45787,414.88339 c -1.3892,-3.6202 5.22879,-27.68977 10.43576,-37.95476 7.05598,-13.91011 9.21995,-13.34296 7.82501,2.05084 -1.35262,14.92664 -3.89971,23.043 -9.98879,31.82955 -4.74116,6.84149 -6.81766,7.86427 -8.27198,4.07437 z"
       id="path6407"
       inkscape:connector-curvature="0"
       transform="scale(0.28222222,0.28222222)" />
  </g>
</svg>
